<?xml version="1.0" encoding="UTF-8" standalone="no"?>
<svg
   xmlns:dc="http://purl.org/dc/elements/1.1/"
   xmlns:cc="http://creativecommons.org/ns#"
   xmlns:rdf="http://www.w3.org/1999/02/22-rdf-syntax-ns#"
   xmlns:svg="http://www.w3.org/2000/svg"
   xmlns="http://www.w3.org/2000/svg"
   xmlns:sodipodi="http://sodipodi.sourceforge.net/DTD/sodipodi-0.dtd"
   xmlns:inkscape="http://www.inkscape.org/namespaces/inkscape"
   id="ae0ed483-2375-4630-8129-5bebfcf074ba"
   data-name="Layer 1"
   width="658.71676"
   height="482.74126"
   viewBox="0 0 658.71676 482.74126"
   version="1.1"
   sodipodi:docname="empty-draft.svg"
   inkscape:version="1.0.1 (3bc2e813f5, 2020-09-07)">
  <metadata
     id="metadata31">
    <rdf:RDF>
      <cc:Work
         rdf:about="">
        <dc:format>image/svg+xml</dc:format>
        <dc:type
           rdf:resource="http://purl.org/dc/dcmitype/StillImage" />
        <dc:title />
      </cc:Work>
    </rdf:RDF>
  </metadata>
  <defs
     id="defs29" />
  <sodipodi:namedview
     pagecolor="#ffffff"
     bordercolor="#666666"
     borderopacity="1"
     objecttolerance="10"
     gridtolerance="10"
     guidetolerance="10"
     inkscape:pageopacity="0"
     inkscape:pageshadow="2"
     inkscape:window-width="1539"
     inkscape:window-height="1008"
     id="namedview27"
     showgrid="false"
     inkscape:zoom="1.1127786"
     inkscape:cx="342.51833"
     inkscape:cy="322.49454"
     inkscape:window-x="209"
     inkscape:window-y="0"
     inkscape:window-maximized="0"
     inkscape:current-layer="ae0ed483-2375-4630-8129-5bebfcf074ba"
     inkscape:document-rotation="0" />
  <path
     d="m 430.34043,96.531347 a 45.340412,46.97987 0 0 0 -36.20591,18.654203 29.853246,30.932703 0 0 0 -41.65378,28.40623 H 475.75858 A 45.418064,47.06033 0 0 0 430.34043,96.531347 Z"
     fill="#e6e6e6"
     id="path2"
     style="stroke-width:1.52417" />
  <ellipse
     cx="124.33668"
     cy="240.63751"
     fill="#ff63de"
     id="circle6"
     style="fill:#ee7da8;fill-opacity:1;stroke:none;stroke-width:1.52417"
     rx="120.87633"
     ry="125.24709" />
  <path
     d="m 627.85463,419.08559 v 34.72079 H 33.879531 v -34.88675 l 3.202019,-4.77754 188.31112,-280.96826 a 9.2775276,9.6129921 0 0 1 15.24165,0 L 366.92188,321.57528 456.8185,188.63101 a 9.2787105,9.6142183 0 0 1 15.2096,0 l 152.62452,225.71014 z"
     fill="#3f3d56"
     id="path8"
     style="stroke-width:1.52417" />
  <path
     d="M 164.36193,478.34292 H 69.902275 a 1.6010174,1.6589083 0 0 1 0,-3.31781 h 94.459655 a 1.601015,1.6589059 0 1 1 0,3.31781 z"
     fill="#3f3d56"
     id="path10"
     style="stroke-width:1.52417" />
  <path
     d="m 591.83189,478.34292 h -94.45967 a 1.6010174,1.6589083 0 0 1 0,-3.31781 h 94.45967 a 1.601015,1.6589059 0 0 1 0,3.31781 z"
     fill="#3f3d56"
     id="path16"
     style="stroke-width:1.52417" />
  <path
     d="m 333.2686,175.11089 a 55.939493,57.962201 0 0 0 -44.66961,23.01494 36.831949,38.163751 0 0 0 -51.39112,35.0466 H 389.30393 A 56.035279,58.061449 0 0 0 333.2686,175.11089 Z"
     fill="#cccccc"
     id="path24"
     style="stroke-width:1.52417" />
  <path
     d="m 630.39586,68.743405 13.71849,-11.088261 c -10.65729,-1.188226 -15.03618,4.685529 -16.82828,9.334649 -8.32592,-3.493802 -17.38965,1.084996 -17.38965,1.084996 l 27.44819,10.070097 a 20.770734,20.990488 0 0 0 -6.94875,-9.401481 z"
     fill="#3f3d56"
     id="path40"
     style="stroke-width:1.07785" />
  <path
     d="m 602.45362,94.060118 13.71849,-11.088262 c -10.6573,-1.188225 -15.03618,4.685528 -16.82828,9.334648 -8.32592,-3.493802 -17.38966,1.084997 -17.38966,1.084997 l 27.44818,10.070099 a 20.770734,20.990488 0 0 0 -6.94873,-9.401482 z"
     fill="#3f3d56"
     id="path40-1"
     style="stroke-width:1.07785" />
  <path
     d="m 186.98524,448.78191 c 0,0 0.66657,-14.11494 14.33135,-12.47425"
     fill="#3f3d56"
     id="path32"
     style="stroke-width:1.07785" />
  <ellipse
     cx="183.12421"
     cy="428.43826"
     fill="#6c63ff"
     id="circle34"
     style="fill:#7e9ffc;fill-opacity:1;stroke-width:1.07785"
     rx="6.839118"
     ry="6.9114761" />
  <rect
     x="182.01138"
     y="440.07681"
     width="1.9305222"
     height="13.656618"
     fill="#3f3d56"
     id="rect36"
     style="stroke-width:1.07785" />
  <path
     d="m 139.56712,453.84609 c 0,0 0.66657,-14.11493 14.33135,-12.47426"
     fill="#3f3d56"
     id="path80"
     style="stroke-width:1.07785" />
  <path
     style="fill:#666666;stroke-width:0"
     d="m 139.63543,453.43196 c 0.0245,-0.13018 0.0885,-0.52714 0.14218,-0.88219 0.23822,-1.57727 0.7739,-3.29628 1.47511,-4.73358 1.33752,-2.74161 3.22663,-4.59377 5.77747,-5.66448 1.66862,-0.7004 4.07323,-1.01141 6.19988,-0.80189 l 0.55304,0.0545 -7.04448,6.13217 c -3.87449,3.37267 -7.06777,6.13216 -7.09619,6.13216 -0.0284,0 -0.0316,-0.10652 -0.008,-0.23668 z"
     id="path1491" />
  <path
     style="fill:#666666;stroke-width:0"
     d="m 187.04087,448.48179 c 0,-0.33361 0.36486,-2.18457 0.58892,-2.98758 0.5794,-2.07653 1.44668,-3.80981 2.64848,-5.29302 0.96624,-1.19249 1.95217,-1.99794 3.29446,-2.69142 1.39009,-0.71817 2.60305,-1.05964 4.38479,-1.23439 1.00623,-0.0987 3.13547,-0.036 3.13547,0.0923 0,0.0639 -13.8443,12.15417 -13.98199,12.21049 -0.0386,0.0158 -0.0701,-0.0277 -0.0701,-0.0964 z"
     id="path1493" />
  <path
     style="fill:#666666;stroke-width:0"
     d="m 182.01616,446.9143 v -6.75614 h 0.93681 0.93682 v 6.75614 6.75615 h -0.93682 -0.93681 z"
     id="path1495" />
  <path
     d="m 297.92827,448.86103 c 0,0 0.66658,-14.11493 14.33135,-12.47426"
     fill="#3f3d56"
     id="path32-1"
     style="stroke-width:1.07785" />
  <ellipse
     cx="294.06723"
     cy="428.51743"
     fill="#6c63ff"
     id="circle34-8"
     style="fill:#9b63f8;fill-opacity:1;stroke-width:1.07785"
     rx="6.839118"
     ry="6.9114761" />
  <rect
     x="292.95441"
     y="440.15594"
     width="1.9305222"
     height="13.656618"
     fill="#3f3d56"
     id="rect36-4"
     style="stroke-width:1.07785" />
  <path
     d="m 250.51015,453.92521 c 0,0 0.66657,-14.11493 14.33133,-12.47427"
     fill="#3f3d56"
     id="path80-8"
     style="stroke-width:1.07785" />
  <path
     style="fill:#666666;stroke-width:0"
     d="m 250.57846,453.51108 c 0.0246,-0.13018 0.0885,-0.52715 0.14217,-0.88217 0.23822,-1.57729 0.7739,-3.29631 1.47513,-4.73359 1.33751,-2.74162 3.22662,-4.59377 5.77746,-5.66449 1.66863,-0.70042 4.07321,-1.01142 6.19987,-0.8019 l 0.55305,0.0545 -7.04449,6.13216 c -3.87447,3.37269 -7.06776,6.13216 -7.09618,6.13216 -0.0284,0 -0.0316,-0.10651 -0.008,-0.23667 z"
     id="path1491-4" />
  <path
     style="fill:#666666;stroke-width:0"
     d="m 297.98391,448.5609 c 0,-0.3336 0.36486,-2.18456 0.58891,-2.98757 0.57939,-2.07652 1.44669,-3.80983 2.64849,-5.29303 0.96623,-1.19249 1.95215,-1.99793 3.29446,-2.69142 1.39007,-0.71815 2.60304,-1.05963 4.38479,-1.23439 1.00623,-0.0987 3.13547,-0.036 3.13547,0.0924 0,0.0639 -13.84433,12.15417 -13.982,12.21049 -0.0386,0.0158 -0.0701,-0.0276 -0.0701,-0.0964 z"
     id="path1493-8" />
  <path
     style="fill:#666666;stroke-width:0"
     d="m 292.9592,446.99341 v -6.75614 h 0.9368 0.93682 v 6.75614 6.75614 h -0.93682 -0.9368 z"
     id="path1495-0" />
  <path
     d="m 572.60919,448.86001 c 0,0 0.66658,-14.11493 14.33135,-12.47426"
     fill="#3f3d56"
     id="path32-3"
     style="stroke-width:1.07785" />
  <ellipse
     cx="568.74799"
     cy="428.51636"
     fill="#6c63ff"
     id="circle34-5"
     rx="6.839118"
     ry="6.9114761"
     style="stroke-width:1.07785" />
  <rect
     x="567.63513"
     y="440.15491"
     width="1.9305222"
     height="13.656618"
     fill="#3f3d56"
     id="rect36-8"
     style="stroke-width:1.07785" />
  <path
     d="m 525.19108,453.92419 c 0,0 0.66658,-14.11494 14.33134,-12.47427"
     fill="#3f3d56"
     id="path80-0"
     style="stroke-width:1.07785" />
  <path
     style="fill:#666666;stroke-width:0"
     d="m 525.25938,453.51006 c 0.0246,-0.13017 0.0885,-0.52715 0.14218,-0.88217 0.23822,-1.57729 0.77391,-3.29631 1.47512,-4.7336 1.33752,-2.7416 3.22663,-4.59377 5.77746,-5.66448 1.66863,-0.7004 4.07322,-1.01142 6.19988,-0.80189 l 0.55305,0.0545 -7.04448,6.13216 c -3.87448,3.3727 -7.06776,6.13217 -7.09618,6.13217 -0.0285,0 -0.0316,-0.10651 -0.008,-0.23668 z"
     id="path1491-2" />
  <path
     style="fill:#666666;stroke-width:0"
     d="m 572.66483,448.5599 c 0,-0.33362 0.36487,-2.18457 0.58892,-2.98758 0.5794,-2.07654 1.44668,-3.80983 2.64849,-5.29303 0.96623,-1.19249 1.95216,-1.99793 3.29446,-2.69142 1.39007,-0.71817 2.60305,-1.05963 4.38479,-1.23439 1.00623,-0.0987 3.13547,-0.036 3.13547,0.0923 0,0.0639 -13.84432,12.15419 -13.982,12.2105 -0.0386,0.0158 -0.0701,-0.0276 -0.0701,-0.0964 z"
     id="path1493-7" />
  <path
     style="fill:#666666;stroke-width:0"
     d="m 567.64013,446.99239 v -6.75613 h 0.9368 0.93682 v 6.75613 6.75614 h -0.93682 -0.9368 z"
     id="path1495-1" />
  <path
     style="fill:#ee7da8;fill-opacity:1;stroke-width:0"
     d="m 566.13426,434.10656 c -2.60251,-1.4914 -3.3401,-2.75347 -3.35758,-5.74502 -0.0317,-5.43674 7.36692,-8.05914 10.76669,-3.81619 2.37805,2.96783 2.18991,5.49444 -0.62062,8.33471 -2.61018,2.63781 -3.91452,2.87346 -6.78849,1.2265 z"
     id="path1548" />
</svg>
