<?xml version="1.0" encoding="UTF-8" standalone="no"?>
<svg
   xmlns:dc="http://purl.org/dc/elements/1.1/"
   xmlns:cc="http://creativecommons.org/ns#"
   xmlns:rdf="http://www.w3.org/1999/02/22-rdf-syntax-ns#"
   xmlns:svg="http://www.w3.org/2000/svg"
   xmlns="http://www.w3.org/2000/svg"
   xmlns:sodipodi="http://sodipodi.sourceforge.net/DTD/sodipodi-0.dtd"
   xmlns:inkscape="http://www.inkscape.org/namespaces/inkscape"
   viewBox="0 0 73.95 67.39"
   version="1.1"
   id="svg59"
   sodipodi:docname="slide2.svg"
   inkscape:version="1.0.1 (3bc2e813f5, 2020-09-07)">
  <metadata
     id="metadata63">
    <rdf:RDF>
      <cc:Work
         rdf:about="">
        <dc:format>image/svg+xml</dc:format>
        <dc:type
           rdf:resource="http://purl.org/dc/dcmitype/StillImage" />
      </cc:Work>
    </rdf:RDF>
  </metadata>
  <sodipodi:namedview
     pagecolor="#ffffff"
     bordercolor="#666666"
     borderopacity="1"
     objecttolerance="10"
     gridtolerance="10"
     guidetolerance="10"
     inkscape:pageopacity="0"
     inkscape:pageshadow="2"
     inkscape:window-width="1534"
     inkscape:window-height="867"
     id="namedview61"
     showgrid="false"
     inkscape:zoom="5.0525079"
     inkscape:cx="19.74817"
     inkscape:cy="21.941623"
     inkscape:window-x="0"
     inkscape:window-y="0"
     inkscape:window-maximized="0"
     inkscape:current-layer="svg59" />
  <defs
     id="defs9">
    <style
       id="style2">.cls-1{fill:#732e54;}.cls-2{fill:#fff;}.cls-3,.cls-6,.cls-8{fill:#389bf3;}.cls-3,.cls-4{opacity:0.8;}.cls-10,.cls-4,.cls-7{fill:#ff9d23;}.cls-5,.cls-9{fill:#aa7dff;}.cls-10,.cls-8,.cls-9{opacity:0.5;}.cls-11{fill:#cec1bc;}.cls-12,.cls-14,.cls-15,.cls-16{fill:none;stroke-linecap:round;stroke-miterlimit:10;}.cls-12{stroke:#732e54;stroke-width:2px;}.cls-13{fill:url(#lukaszadam_gradient);}.cls-14,.cls-15,.cls-16{stroke:#fff;}.cls-14{opacity:0.3;}.cls-16{opacity:0.6;}</style>
    <linearGradient
       id="lukaszadam_gradient"
       x1="3.14"
       y1="37.01"
       x2="42.28"
       y2="37.01"
       gradientUnits="userSpaceOnUse">
      <stop
         offset="0.04"
         stop-color="#f27b40"
         id="stop4" />
      <stop
         offset="1"
         stop-color="#ec697d"
         id="stop6" />
    </linearGradient>
  </defs>
  <title
     id="title11">Asset 18</title>
  <g
     id="Layer_2"
     data-name="Layer 2"
     transform="matrix(0.84162022,0,0,0.85030889,17.020943,1.0069158)">
    <g
       id="Layer_1-2"
       data-name="Layer 1">
      <path
         class="cls-1"
         d="m 13.77,14.89 a 3,3 0 0 1 -3.61,-2.23 l -2.1,-9 A 3,3 0 0 1 13.9,2.31 l 2.1,9 a 3,3 0 0 1 -2.23,3.58 z"
         id="path13" />
      <path
         class="cls-2"
         d="M 38.77,14.8 H 4.3 L 5.68,10.92 A 0.75,0.75 0 0 1 6.4,10.41 h 30.28 a 0.76,0.76 0 0 1 0.72,0.51 z"
         id="path15" />
      <path
         class="cls-3"
         d="M 53.75,28 33.68,41 A 2.65,2.65 0 1 1 30.8,36.56 l 20.07,-13 A 2.6461292,2.6461292 0 0 1 53.75,28 Z"
         id="path17" />
      <path
         class="cls-4"
         d="M 26.93,45.42 13.51,54.14 A 2.6419358,2.6419358 0 1 1 10.63,49.71 L 24.05,41 a 2.65,2.65 0 0 1 2.88,4.44 z"
         id="path19" />
      <path
         class="cls-5"
         d="M 44.32,24.91 24.26,38 a 2.65,2.65 0 0 1 -2.88,-4.44 l 20.06,-13 a 2.6419358,2.6419358 0 1 1 2.88,4.43 z"
         id="path21" />
      <path
         class="cls-6"
         d="M 17.5,42.35 4.08,51.07 A 2.6419358,2.6419358 0 0 1 1.2,46.64 l 13.42,-8.72 a 2.6419358,2.6419358 0 1 1 2.88,4.43 z"
         id="path23" />
      <path
         class="cls-7"
         d="m 50.38,21 -0.13,0.08 A 2.65,2.65 0 0 1 47.37,16.64 L 47.5,16.56 A 2.65,2.65 0 0 1 50.38,21 Z"
         id="path25" />
      <path
         class="cls-8"
         d="m 52.73,37.84 -20.07,13 a 2.6419358,2.6419358 0 1 1 -2.88,-4.43 l 20.07,-13 a 2.6419358,2.6419358 0 0 1 2.88,4.43 z"
         id="path27" />
      <path
         class="cls-9"
         d="M 25.91,55.27 12.49,64 A 2.6419358,2.6419358 0 1 1 9.61,59.57 L 23,50.84 a 2.6419358,2.6419358 0 0 1 2.88,4.43 z"
         id="path29" />
      <path
         class="cls-10"
         d="m 58.78,33.9 -0.12,0.08 a 2.6419358,2.6419358 0 1 1 -2.88,-4.43 l 0.12,-0.08 a 2.6419358,2.6419358 0 1 1 2.88,4.43 z"
         id="path31" />
      <path
         class="cls-2"
         d="m 40.41,19.76 -2.9,46.57 a 1.84,1.84 0 0 1 -1.83,1.73 H 10 A 1.85,1.85 0 0 1 8.16,66.33 L 5.3,19.76"
         id="path33" />
      <path
         class="cls-11"
         d="m 40,19.57 -2.87,46.57 a 1.85,1.85 0 0 1 -1.84,1.73 H 9.65 A 1.84,1.84 0 0 1 7.81,66.14 L 7.08,54.49 a 14.25,14.25 0 0 0 11.09,1.88 c 4.57,-1.13 8.34,-4.52 10.78,-8.55 2.44,-4.03 3.67,-8.65 4.57,-13.27 a 107.65,107.65 0 0 0 1.8,-15 z"
         id="path35" />
      <path
         class="cls-12"
         d="m 40,20.57 -2.87,45.57 a 1.85,1.85 0 0 1 -1.84,1.73 H 9.64 A 1.85,1.85 0 0 1 7.8,66.14 L 4.91,20.57"
         id="path37" />
      <path
         class="cls-12"
         d="m 2.76,15.45 h 38.88 a 0.74,0.74 0 0 1 0.74,0.74 v 3.51 a 0.74,0.74 0 0 1 -0.74,0.74 H 2.76 A 0.89,0.89 0 0 1 1.87,19.55 v -3.2 a 0.89,0.89 0 0 1 0.89,-0.9 z"
         id="path39" />
      <path
         class="cls-12"
         d="M 4.69,15.2 6.07,11.31 A 0.78,0.78 0 0 1 6.79,10.8 h 12.5"
         id="path41" />
      <path
         class="cls-12"
         d="M 39.17,15.2 37.79,11.31 A 0.78,0.78 0 0 0 37.07,10.8 h -12.5"
         id="path43" />
      <polygon
         class="cls-13"
         points="41.28,47.04 4.13,47.04 3.13,26.98 42.28,26.98 "
         id="polygon45"
         style="fill:url(#lukaszadam_gradient)" />
      <path
         class="cls-12"
         d="M 40.23,47.14 H 5 a 1,1 0 0 1 -1,-1 L 3.1,28.08 a 1,1 0 0 1 1,-1.05 h 37 a 1,1 0 0 1 1,1.05 l -0.9,18.06 a 1,1 0 0 1 -0.97,1 z"
         id="path47" />
      <line
         class="cls-14"
         x1="11.16"
         y1="43.98"
         x2="12.26"
         y2="43.98"
         id="line49" />
      <path
         class="cls-15"
         d="M 6.93,38.07 7.19,42.5 A 1.58,1.58 0 0 0 8.76,44 v 0"
         id="path51" />
      <line
         class="cls-16"
         x1="6.8000002"
         y1="34.360001"
         x2="6.8600001"
         y2="35.689999"
         id="line53" />
      <line
         class="cls-15"
         x1="6.5999999"
         y1="30.530001"
         x2="6.6900001"
         y2="32.419998"
         id="line55" />
    </g>
  </g>
</svg>
