<?xml version="1.0" encoding="UTF-8" standalone="no"?>
<svg
   xmlns:dc="http://purl.org/dc/elements/1.1/"
   xmlns:cc="http://creativecommons.org/ns#"
   xmlns:rdf="http://www.w3.org/1999/02/22-rdf-syntax-ns#"
   xmlns:svg="http://www.w3.org/2000/svg"
   xmlns="http://www.w3.org/2000/svg"
   xmlns:xlink="http://www.w3.org/1999/xlink"
   xmlns:sodipodi="http://sodipodi.sourceforge.net/DTD/sodipodi-0.dtd"
   xmlns:inkscape="http://www.inkscape.org/namespaces/inkscape"
   viewBox="0 0 73.95 67.39"
   version="1.1"
   id="svg68"
   sodipodi:docname="slide3.svg"
   inkscape:version="1.0.1 (3bc2e813f5, 2020-09-07)">
  <metadata
     id="metadata72">
    <rdf:RDF>
      <cc:Work
         rdf:about="">
        <dc:format>image/svg+xml</dc:format>
        <dc:type
           rdf:resource="http://purl.org/dc/dcmitype/StillImage" />
      </cc:Work>
    </rdf:RDF>
  </metadata>
  <sodipodi:namedview
     pagecolor="#ffffff"
     bordercolor="#666666"
     borderopacity="1"
     objecttolerance="10"
     gridtolerance="10"
     guidetolerance="10"
     inkscape:pageopacity="0"
     inkscape:pageshadow="2"
     inkscape:window-width="1479"
     inkscape:window-height="827"
     id="namedview70"
     showgrid="false"
     inkscape:zoom="4.7625505"
     inkscape:cx="10.236788"
     inkscape:cy="22.987551"
     inkscape:window-x="0"
     inkscape:window-y="0"
     inkscape:window-maximized="0"
     inkscape:current-layer="Layer_2" />
  <defs
     id="defs10">
    <style
       id="style2">.cls-1,.cls-4,.cls-6{fill:#389bf3;}.cls-1,.cls-2{opacity:0.8;}.cls-2,.cls-5,.cls-8{fill:#ff9d23;}.cls-3,.cls-7{fill:#aa7dff;}.cls-6,.cls-7,.cls-8{opacity:0.5;}.cls-9{fill:#fff;}.cls-10,.cls-11{fill:#cec1bc;}.cls-11,.cls-15,.cls-16,.cls-17{fill-rule:evenodd;}.cls-12,.cls-13,.cls-16{fill:none;stroke:#732e54;stroke-miterlimit:10;stroke-width:2px;}.cls-13{stroke-linecap:round;}.cls-14{fill:#732e54;}.cls-15{fill:url(#lukaszadam_gradient);}.cls-17{fill:url(#lukaszadam_gradient-2);}</style>
    <linearGradient
       id="lukaszadam_gradient"
       x1="18.02"
       y1="41.61"
       x2="40.71"
       y2="41.61"
       gradientUnits="userSpaceOnUse">
      <stop
         offset="0.04"
         stop-color="#f27b40"
         id="stop4" />
      <stop
         offset="1"
         stop-color="#ec697d"
         id="stop6" />
    </linearGradient>
    <linearGradient
       id="lukaszadam_gradient-2"
       x1="32.85"
       y1="38.63"
       x2="62.1"
       y2="38.63"
       xlink:href="#lukaszadam_gradient" />
    <linearGradient
       inkscape:collect="always"
       xlink:href="#lukaszadam_gradient"
       id="linearGradient897"
       gradientUnits="userSpaceOnUse"
       x1="18.02"
       y1="41.61"
       x2="40.71"
       y2="41.61" />
  </defs>
  <title
     id="title12">Asset 25</title>
  <g
     id="Layer_2"
     data-name="Layer 2"
     transform="matrix(0.8201373,0,0,0.77740262,16.363626,1.4832414)">
    <g
       id="Layer_1-2"
       data-name="Layer 1"
       transform="translate(0,3.241124)">
      <path
         class="cls-1"
         d="m 53.75,19.53 -20.07,13 A 2.6419358,2.6419358 0 1 1 30.8,28.1 l 20.07,-13 a 2.6419358,2.6419358 0 0 1 2.88,4.43 z"
         id="path14" />
      <path
         class="cls-2"
         d="M 26.93,37 13.51,45.69 A 2.6419358,2.6419358 0 1 1 10.63,41.26 L 24.05,32.54 A 2.6545244,2.6545244 0 0 1 26.93,37 Z"
         id="path16" />
      <path
         class="cls-3"
         d="M 44.32,16.46 24.26,29.51 A 2.6419358,2.6419358 0 1 1 21.38,25.08 L 41.44,12 a 2.6419358,2.6419358 0 1 1 2.88,4.43 z"
         id="path18" />
      <path
         class="cls-4"
         d="M 17.5,33.9 4.08,42.62 A 2.6419358,2.6419358 0 0 1 1.2,38.19 l 13.42,-8.72 a 2.6419358,2.6419358 0 1 1 2.88,4.43 z"
         id="path20" />
      <path
         class="cls-5"
         d="m 50.38,12.53 -0.13,0.08 A 2.6419358,2.6419358 0 0 1 47.37,8.18 L 47.5,8.1 a 2.6419358,2.6419358 0 0 1 2.88,4.43 z"
         id="path22" />
      <path
         class="cls-6"
         d="m 52.73,29.39 -20.07,13 A 2.65,2.65 0 1 1 29.78,38 L 49.85,25 a 2.6419358,2.6419358 0 0 1 2.88,4.43 z"
         id="path24" />
      <path
         class="cls-7"
         d="M 25.91,46.83 12.49,55.55 A 2.6419358,2.6419358 0 1 1 9.61,51.12 L 23,42.39 a 2.65,2.65 0 0 1 2.88,4.44 z"
         id="path26" />
      <path
         class="cls-8"
         d="m 58.78,25.46 -0.12,0.08 A 2.65,2.65 0 0 1 55.78,21.1 L 55.9,21 a 2.65,2.65 0 1 1 2.88,4.44 z"
         id="path28" />
      <rect
         class="cls-9"
         x="2.05"
         y="1.36"
         width="37.52"
         height="69.809998"
         rx="5.9000001"
         id="rect30" />
      <path
         class="cls-10"
         d="m 39.63,5.5 v 62 a 2.3,2.3 0 0 1 -2.3,2.3 L 6.71,70.89 c -2.38,0 -3.48,-2.63 -4.26,-4.75 a 5.48,5.48 0 0 0 1.91,0.34 H 34 a 2.3,2.3 0 0 0 2.3,-2.3 v -62 A 5.43,5.43 0 0 0 36,0.31 5.52,5.52 0 0 1 39.63,5.5 Z"
         id="path32" />
      <circle
         class="cls-9"
         cx="16.52"
         cy="22.51"
         r="7.6700001"
         id="circle34" />
      <path
         class="cls-11"
         d="m 24.43,22.76 a 7.67,7.67 0 0 1 -15.34,0 6.79,6.79 0 0 1 0.27,-2 7.67,7.67 0 0 0 14.82,0 7.55,7.55 0 0 1 0.25,2 z"
         id="path36" />
      <circle
         class="cls-12"
         cx="17.219999"
         cy="23.209999"
         r="7.6700001"
         id="circle38" />
      <rect
         class="cls-12"
         x="2.76"
         y="1"
         width="37.52"
         height="69.809998"
         rx="4.0300002"
         id="rect40" />
      <line
         class="cls-13"
         x1="12.83"
         y1="6.8200002"
         x2="25.280001"
         y2="6.8200002"
         id="line42" />
      <circle
         class="cls-14"
         cx="29.02"
         cy="6.8099999"
         r="1.1900001"
         id="circle44" />
      <line
         class="cls-13"
         x1="22.58"
         y1="46.540001"
         x2="22.709999"
         y2="59.380001"
         id="line46" />
      <line
         class="cls-13"
         x1="26.629999"
         y1="46.540001"
         x2="26.76"
         y2="55.900002"
         id="line48" />
      <circle
         class="cls-14"
         cx="22.75"
         cy="62.939999"
         r="0.95999998"
         id="circle50" />
      <line
         class="cls-13"
         x1="49.200001"
         y1="46.540001"
         x2="49.330002"
         y2="54.299999"
         id="line52" />
      <line
         class="cls-13"
         x1="53.25"
         y1="46.540001"
         x2="53.380001"
         y2="57.119999"
         id="line54" />
      <circle
         class="cls-14"
         cx="49.259998"
         cy="58.040001"
         r="0.95999998"
         id="circle56" />
      <polygon
         class="cls-15"
         points="29.36,51.44 18.02,51.44 23.69,41.61 29.36,31.79 35.04,41.61 40.71,51.44 "
         id="polygon58"
         style="fill:url(#linearGradient897)" />
      <polygon
         class="cls-16"
         points="29.84,51.32 18.5,51.32 24.17,41.49 29.84,31.67 35.52,41.49 41.19,51.32 "
         id="polygon60" />
      <polygon
         class="cls-17"
         points="47.48,51.61 32.85,51.61 40.16,38.63 47.48,25.66 54.78,38.63 62.09,51.61 "
         id="polygon62"
         style="fill:url(#lukaszadam_gradient-2)" />
      <polygon
         class="cls-16"
         points="47.72,51.35 33.1,51.35 40.41,38.38 47.72,25.4 55.03,38.38 62.34,51.35 "
         id="polygon64" />
    </g>
  </g>
</svg>
