<?xml version="1.0" encoding="UTF-8" standalone="no"?>
<svg
   xmlns:dc="http://purl.org/dc/elements/1.1/"
   xmlns:cc="http://creativecommons.org/ns#"
   xmlns:rdf="http://www.w3.org/1999/02/22-rdf-syntax-ns#"
   xmlns:svg="http://www.w3.org/2000/svg"
   xmlns="http://www.w3.org/2000/svg"
   xmlns:xlink="http://www.w3.org/1999/xlink"
   xmlns:sodipodi="http://sodipodi.sourceforge.net/DTD/sodipodi-0.dtd"
   xmlns:inkscape="http://www.inkscape.org/namespaces/inkscape"
   id="683d3690-e1ab-45db-97b8-9484a1649262"
   data-name="Layer 1"
   width="839.2"
   height="727.08"
   viewBox="0 0 839.2 727.08"
   version="1.1"
   sodipodi:docname="undraw_happy_birthday_s72n.svg"
   inkscape:version="1.0.1 (3bc2e813f5, 2020-09-07)">
  <metadata
     id="metadata139">
    <rdf:RDF>
      <cc:Work
         rdf:about="">
        <dc:format>image/svg+xml</dc:format>
        <dc:type
           rdf:resource="http://purl.org/dc/dcmitype/StillImage" />
      </cc:Work>
    </rdf:RDF>
  </metadata>
  <sodipodi:namedview
     pagecolor="#ffffff"
     bordercolor="#666666"
     borderopacity="1"
     objecttolerance="10"
     gridtolerance="10"
     guidetolerance="10"
     inkscape:pageopacity="0"
     inkscape:pageshadow="2"
     inkscape:window-width="1486"
     inkscape:window-height="820"
     id="namedview137"
     showgrid="false"
     inkscape:zoom="0.87343546"
     inkscape:cx="419.60001"
     inkscape:cy="244.06958"
     inkscape:window-x="0"
     inkscape:window-y="0"
     inkscape:window-maximized="0"
     inkscape:current-layer="683d3690-e1ab-45db-97b8-9484a1649262" />
  <defs
     id="defs14">
    <linearGradient
       id="89bbdcf5-814f-445d-9d3e-b835a9e3988b"
       x1="484.88"
       y1="578.23"
       x2="600.81"
       y2="578.23"
       gradientUnits="userSpaceOnUse">
      <stop
         offset="0"
         stop-color="gray"
         stop-opacity="0.25"
         id="stop2" />
      <stop
         offset="0.54"
         stop-color="gray"
         stop-opacity="0.12"
         id="stop4" />
      <stop
         offset="1"
         stop-color="gray"
         stop-opacity="0.1"
         id="stop6" />
    </linearGradient>
    <linearGradient
       id="1a6f3992-5825-4187-85b9-fb55ca803b83"
       x1="615.75"
       y1="530.72"
       x2="651.5"
       y2="530.72"
       xlink:href="#89bbdcf5-814f-445d-9d3e-b835a9e3988b"
       gradientTransform="translate(-222.76146,-57.837393)" />
    <linearGradient
       id="573de093-6af1-4ab3-932c-9e7f72f49645"
       x1="745.48"
       y1="595.56"
       x2="780.02"
       y2="595.56"
       xlink:href="#89bbdcf5-814f-445d-9d3e-b835a9e3988b"
       gradientTransform="translate(-222.76146,-57.837393)" />
    <linearGradient
       id="acf24d19-87bc-4cad-9346-f74a977c4433"
       x1="634.32"
       y1="509.85"
       x2="634.32"
       y2="96.02"
       xlink:href="#89bbdcf5-814f-445d-9d3e-b835a9e3988b" />
    <linearGradient
       id="6f986e28-ee02-4c37-906f-8450bb16da28"
       x1="637.11"
       y1="586.77"
       x2="637.11"
       y2="513.3"
       xlink:href="#89bbdcf5-814f-445d-9d3e-b835a9e3988b" />
    <linearGradient
       id="96b175d5-5e64-4663-918e-24aaa3155285"
       x1="454.92"
       y1="727.08"
       x2="454.92"
       y2="487.86"
       xlink:href="#89bbdcf5-814f-445d-9d3e-b835a9e3988b" />
    <linearGradient
       inkscape:collect="always"
       xlink:href="#89bbdcf5-814f-445d-9d3e-b835a9e3988b"
       id="linearGradient141"
       gradientUnits="userSpaceOnUse"
       x1="484.88"
       y1="578.23"
       x2="600.81"
       y2="578.23"
       gradientTransform="translate(-222.76146,-57.837393)" />
  </defs>
  <title
     id="title16">happy birthday</title>
  <g
     opacity="0.5"
     id="g22"
     transform="translate(-42.361458,28.622607)">
    <rect
       x="124.18"
       y="129.50999"
       width="3.3299999"
       height="18.870001"
       fill="#47e6b1"
       id="rect18" />
    <rect
       x="304.57999"
       y="215.97"
       width="3.3299999"
       height="18.870001"
       transform="rotate(90,259.275,91.975)"
       fill="#47e6b1"
       id="rect20" />
  </g>
  <g
     opacity="0.5"
     id="g28"
     transform="translate(-42.361458,28.622607)">
    <rect
       x="242.55"
       y="540.19"
       width="3.3299999"
       height="18.870001"
       fill="#47e6b1"
       id="rect24" />
    <rect
       x="422.95001"
       y="626.65002"
       width="3.3299999"
       height="18.870001"
       transform="rotate(90,377.64,502.65)"
       fill="#47e6b1"
       id="rect26" />
  </g>
  <g
     opacity="0.5"
     id="g34"
     transform="translate(-42.361458,28.622607)">
    <rect
       x="76.860001"
       y="321"
       width="3.3299999"
       height="18.870001"
       fill="#47e6b1"
       id="rect30" />
    <rect
       x="257.26001"
       y="407.45999"
       width="3.3299999"
       height="18.870001"
       transform="rotate(90,211.955,283.465)"
       fill="#47e6b1"
       id="rect32" />
  </g>
  <g
     opacity="0.5"
     id="g40"
     transform="translate(-42.361458,28.622607)">
    <rect
       x="659.85999"
       width="3.3299999"
       height="18.870001"
       fill="#47e6b1"
       id="rect36"
       y="0" />
    <rect
       x="840.26001"
       y="86.459999"
       width="3.3299999"
       height="18.870001"
       transform="rotate(90,794.955,-37.535)"
       fill="#47e6b1"
       id="rect38" />
  </g>
  <g
     opacity="0.5"
     id="g46"
     transform="translate(-42.361458,28.622607)">
    <rect
       x="97.970001"
       y="46.93"
       width="3.3299999"
       height="18.870001"
       fill="#47e6b1"
       id="rect42" />
    <rect
       x="278.37"
       y="133.39"
       width="3.3299999"
       height="18.870001"
       transform="rotate(90,233.06,9.39)"
       fill="#47e6b1"
       id="rect44" />
  </g>
  <path
     d="m 122.73854,501.47261 a 4.08,4.08 0 0 1 -2.27,-4.93 2,2 0 0 0 0.09,-0.45 v 0 a 2,2 0 0 0 -3.67,-1.36 v 0 a 2,2 0 0 0 -0.23,0.4 4.08,4.08 0 0 1 -4.93,2.27 2,2 0 0 0 -0.45,-0.09 v 0 a 2,2 0 0 0 -1.36,3.67 v 0 a 2,2 0 0 0 0.4,0.23 4.08,4.08 0 0 1 2.27,4.93 2,2 0 0 0 -0.09,0.45 v 0 a 2,2 0 0 0 3.67,1.36 v 0 a 2,2 0 0 0 0.23,-0.4 4.08,4.08 0 0 1 4.93,-2.27 2,2 0 0 0 0.45,0.09 v 0 a 2,2 0 0 0 1.36,-3.67 v 0 a 2,2 0 0 0 -0.4,-0.23 z"
     fill="#4d8af0"
     opacity="0.5"
     id="path48" />
  <path
     d="m 106.23854,680.82261 a 4.08,4.08 0 0 1 -2.27,-4.93 2,2 0 0 0 0.09,-0.45 v 0 a 2,2 0 0 0 -3.67,-1.36 v 0 a 2,2 0 0 0 -0.23,0.4 4.08,4.08 0 0 1 -4.919998,2.28 2,2 0 0 0 -0.45,-0.09 v 0 a 2,2 0 0 0 -1.36,3.67 v 0 a 2,2 0 0 0 0.4,0.23 4.08,4.08 0 0 1 2.27,4.93 2,2 0 0 0 -0.09,0.45 v 0 a 2,2 0 0 0 3.67,1.36 v 0 a 2,2 0 0 0 0.23,-0.4 4.08,4.08 0 0 1 4.929998,-2.27 2,2 0 0 0 0.45,0.09 v 0 a 2,2 0 0 0 1.36,-3.67 v 0 a 2,2 0 0 0 -0.41,-0.24 z"
     fill="#4d8af0"
     opacity="0.5"
     id="path50" />
  <path
     d="m 713.23854,283.82261 a 4.08,4.08 0 0 1 -2.27,-4.93 2,2 0 0 0 0.09,-0.45 v 0 a 2,2 0 0 0 -3.67,-1.36 v 0 a 2,2 0 0 0 -0.23,0.4 4.08,4.08 0 0 1 -4.92,2.28 2,2 0 0 0 -0.45,-0.09 v 0 a 2,2 0 0 0 -1.36,3.67 v 0 a 2,2 0 0 0 0.4,0.23 4.08,4.08 0 0 1 2.27,4.93 2,2 0 0 0 -0.09,0.45 v 0 a 2,2 0 0 0 3.67,1.36 v 0 a 2,2 0 0 0 0.23,-0.4 4.08,4.08 0 0 1 4.93,-2.27 2,2 0 0 0 0.45,0.09 v 0 a 2,2 0 0 0 1.36,-3.67 v 0 a 2,2 0 0 0 -0.41,-0.24 z"
     fill="#4d8af0"
     opacity="0.5"
     id="path52" />
  <path
     d="m 685.76854,473.16261 a 4.08,4.08 0 0 1 -2.27,-4.93 2,2 0 0 0 0.09,-0.45 v 0 a 2,2 0 0 0 -3.67,-1.36 v 0 a 2,2 0 0 0 -0.23,0.4 4.08,4.08 0 0 1 -4.93,2.27 2,2 0 0 0 -0.45,-0.09 v 0 a 2,2 0 0 0 -1.36,3.67 v 0 a 2,2 0 0 0 0.4,0.23 4.08,4.08 0 0 1 2.27,4.93 2,2 0 0 0 -0.09,0.45 v 0 a 2,2 0 0 0 3.67,1.36 v 0 a 2,2 0 0 0 0.23,-0.4 4.08,4.08 0 0 1 4.93,-2.27 2,2 0 0 0 0.45,0.09 v 0 a 2,2 0 0 0 1.36,-3.67 v 0 a 2,2 0 0 0 -0.4,-0.23 z"
     fill="#4d8af0"
     opacity="0.5"
     id="path54" />
  <path
     d="m 706.23854,95.832607 a 4.08,4.08 0 0 1 -2.27,-4.93 2,2 0 0 0 0.09,-0.45 v 0 a 2,2 0 0 0 -3.67,-1.36 v 0 a 2,2 0 0 0 -0.23,0.4 4.08,4.08 0 0 1 -4.93,2.27 2,2 0 0 0 -0.45,-0.09 v 0 a 2,2 0 0 0 -1.36,3.67 v 0 a 2,2 0 0 0 0.4,0.23 4.08,4.08 0 0 1 2.27,4.930003 2,2 0 0 0 -0.09,0.45 v 0 a 2,2 0 0 0 3.67,1.36 v 0 a 2,2 0 0 0 0.23,-0.4 4.08,4.08 0 0 1 4.93,-2.270003 2,2 0 0 0 0.45,0.09 v 0 a 2,2 0 0 0 1.36,-3.67 v 0 a 2,2 0 0 0 -0.4,-0.23 z"
     fill="#4d8af0"
     opacity="0.5"
     id="path56" />
  <path
     d="m 770.45854,587.88261 a 4.08,4.08 0 0 1 -2.27,-4.93 2,2 0 0 0 0.09,-0.45 v 0 a 2,2 0 0 0 -3.67,-1.36 v 0 a 2,2 0 0 0 -0.23,0.4 4.08,4.08 0 0 1 -4.93,2.27 2,2 0 0 0 -0.45,-0.09 v 0 a 2,2 0 0 0 -1.36,3.67 v 0 a 2,2 0 0 0 0.4,0.23 4.08,4.08 0 0 1 2.27,4.93 2,2 0 0 0 -0.09,0.45 v 0 a 2,2 0 0 0 3.67,1.36 v 0 a 2,2 0 0 0 0.23,-0.4 4.08,4.08 0 0 1 4.93,-2.27 2,2 0 0 0 0.45,0.09 v 0 a 2,2 0 0 0 1.36,-3.67 v 0 a 2,2 0 0 0 -0.4,-0.23 z"
     fill="#4d8af0"
     opacity="0.5"
     id="path58" />
  <circle
     cx="-35.701458"
     cy="286.40262"
     r="6.6599998"
     fill="#ee7da8"
     opacity="0.5"
     id="circle60" />
  <circle
     cx="707.46857"
     cy="174.7126"
     r="6.6599998"
     fill="#ee7da8"
     opacity="0.5"
     id="circle62" />
  <circle
     cx="404.55856"
     cy="424.58261"
     r="7.5"
     fill="#ee7da8"
     opacity="0.5"
     id="circle64" />
  <circle
     cx="404.55856"
     cy="424.58261"
     r="7.5"
     fill="#ee7da8"
     opacity="0.5"
     id="circle66" />
  <circle
     cx="790.18854"
     cy="374.96262"
     r="6.6599998"
     fill="#ee7da8"
     opacity="0.5"
     id="circle68" />
  <circle
     cx="251.80855"
     cy="75.892609"
     r="7.5"
     fill="#47e6b1"
     opacity="0.5"
     id="circle70" />
  <circle
     cx="679.12854"
     cy="650.03259"
     r="6.6599998"
     fill="#ee7da8"
     opacity="0.5"
     id="circle72" />
  <path
     d="m 264.33854,410.16261 c -3.94,12.79 2,27.91 13.53,34.64 4.84,2.82 10.41,4.24 15.1,7.3 10.19,6.64 14.21,19.35 17.52,31.05 3.8,13.45 7.61,27.67 4.13,41.2 -2.22,8.63 -7.27,16.26 -10.14,24.7 a 51.54,51.54 0 0 0 -2.45,22 c 0.42,3.94 1.4,8 4.1,10.94 3.9,4.2 10.18,4.83 15.82,5.84 a 76.78,76.78 0 0 1 55.2,42.74"
     fill="none"
     stroke-miterlimit="10"
     stroke-width="2"
     stroke="url(#89bbdcf5-814f-445d-9d3e-b835a9e3988b)"
     id="path74"
     style="stroke:url(#linearGradient141)" />
  <path
     d="m 265.54854,410.16261 c -3.94,12.79 2,27.91 13.53,34.64 4.84,2.82 10.41,4.24 15.1,7.3 10.19,6.64 14.21,19.35 17.52,31.05 3.8,13.45 7.61,27.67 4.13,41.2 -2.22,8.63 -7.27,16.26 -10.14,24.7 a 51.54,51.54 0 0 0 -2.45,22 c 0.42,3.94 1.4,8 4.1,10.94 3.9,4.2 10.18,4.83 15.82,5.84 a 76.78,76.78 0 0 1 55.2,42.74"
     fill="none"
     stroke="#535461"
     stroke-miterlimit="10"
     stroke-width="2"
     id="path76" />
  <path
     d="m 414.68854,314.56261 c -9.72,13.55 -19.81,28.12 -20.64,44.78 -1.27,25.59 19.2,46.52 28.34,70.46 a 83.74,83.74 0 0 1 -2.81,65.5 c -4.46,9.22 -10.82,18.38 -10,28.59 0.47,6.23 3.59,11.9 6.1,17.63 a 99.4,99.4 0 0 1 -5.77,89.75"
     fill="none"
     stroke-miterlimit="10"
     stroke-width="2"
     stroke="url(#1a6f3992-5825-4187-85b9-fb55ca803b83)"
     id="path78"
     style="stroke:url(#1a6f3992-5825-4187-85b9-fb55ca803b83)" />
  <path
     d="m 415.88854,314.56261 c -9.71,13.6 -19.8,28.13 -20.65,44.78 -1.27,25.59 19.2,46.52 28.34,70.46 a 83.74,83.74 0 0 1 -2.81,65.5 c -4.46,9.22 -10.82,18.38 -10,28.59 0.47,6.23 3.59,11.9 6.1,17.63 a 99.4,99.4 0 0 1 -5.77,89.75"
     fill="none"
     stroke="#535461"
     stroke-miterlimit="10"
     stroke-width="2"
     id="path80" />
  <path
     d="m 551.06854,436.44261 4.7,38.31 c 0.62,5.09 1.15,10.64 -1.58,15 -2.59,4.11 -7.45,6.07 -11.23,9.11 -12.41,10 -11.28,29.11 -7,44.45 4.28,15.34 10.44,31.82 4.49,46.58 -2.46,6.09 -6.8,11.22 -10,16.94 a 51.87,51.87 0 0 0 -6.2,32.18"
     fill="none"
     stroke-miterlimit="10"
     stroke-width="2"
     stroke="url(#573de093-6af1-4ab3-932c-9e7f72f49645)"
     id="path82"
     style="stroke:url(#573de093-6af1-4ab3-932c-9e7f72f49645)" />
  <path
     d="m 552.23854,436.44261 4.7,38.31 c 0.62,5.09 1.15,10.64 -1.58,15 -2.59,4.11 -7.45,6.07 -11.23,9.11 -12.41,10 -11.28,29.11 -7,44.45 4.28,15.34 10.44,31.82 4.49,46.58 -2.46,6.09 -6.8,11.22 -10,16.94 a 51.87,51.87 0 0 0 -6.2,32.18"
     fill="none"
     stroke="#535461"
     stroke-miterlimit="10"
     stroke-width="2"
     id="path84" />
  <g
     opacity="0.7"
     id="g88"
     transform="translate(-42.361458,28.622607)">
    <path
       d="M 895.7,336.82 A 113.6,113.6 0 0 0 747,228.83 a 136.45,136.45 0 0 0 1.45,-19.27 113.53,113.53 0 0 0 -226.78,-8.14 113.6,113.6 0 0 0 -148.76,108 c 0,57 42,138 96.65,152.35 l 8.51,4.86 -4.62,15.83 h 27.36 l -5.94,-15.85 8.47,-4.84 c 42.26,-11.09 76.91,-62 90.48,-110.83 a 83,83 0 0 0 24.22,11 l 8.51,4.86 -4.55,15.79 h 27.36 l -5.94,-15.85 8.47,-4.84 a 79.21,79.21 0 0 0 18,-7.31 c 7.31,54.78 46.2,121.66 95.41,134.57 l 8.51,4.86 -4.62,15.83 h 27.36 l -5.96,-15.85 8.47,-4.84 c 54.69,-14.35 96.64,-95.38 96.64,-152.34 z"
       transform="translate(-180.4,-86.46)"
       fill="url(#acf24d19-87bc-4cad-9346-f74a977c4433)"
       id="path86"
       style="fill:url(#acf24d19-87bc-4cad-9346-f74a977c4433)" />
  </g>
  <polygon
     points="298.28,390.14 302.92,374.26 318.8,374.26 324.76,390.14 "
     fill="#ee7da8"
     id="polygon90"
     transform="translate(-42.361458,28.622607)" />
  <path
     d="m 378.35854,251.32261 c 0,60.68 -49.19,149.57 -109.86,149.57 -60.67,0 -109.86,-88.9 -109.86,-149.57 a 109.865,109.865 0 0 1 219.73,0 z"
     fill="#ee7da8"
     id="path92" />
  <polygon
     points="302.92,374.92 293.65,369.63 328.07,369.63 318.8,374.92 "
     fill="#535461"
     id="polygon94"
     transform="translate(-42.361458,28.622607)" />
  <path
     d="m 228.78854,165.94261 c 0,0 -46.33,25.15 -52.95,75.45"
     fill="#ffffff"
     opacity="0.1"
     id="path96" />
  <polygon
     points="441.95,293.56 446.59,277.68 462.47,277.68 468.43,293.56 "
     fill="#4d8af0"
     id="polygon98"
     transform="translate(-42.361458,28.622607)" />
  <path
     d="m 522.02854,154.74261 c 0,60.68 -49.19,149.57 -109.86,149.57 -60.67,0 -109.86,-88.9 -109.86,-149.57 a 109.865,109.865 0 0 1 219.73,0 z"
     fill="#9b63f8"
     id="path100" />
  <polygon
     points="446.59,278.34 437.32,273.04 471.74,273.04 462.47,278.34 "
     fill="#535461"
     id="polygon102"
     transform="translate(-42.361458,28.622607)" />
  <path
     d="m 372.45854,69.362607 c 0,0 -46.33,25.15 -52.95,75.450003"
     fill="#ffffff"
     opacity="0.1"
     id="path104" />
  <polygon
     points="584.41,416.71 589.05,400.82 604.93,400.82 610.89,416.71 "
     fill="#7e9ffc"
     id="polygon106"
     transform="translate(-42.361458,28.622607)" />
  <path
     d="m 664.48854,277.88261 c 0,60.68 -49.19,149.57 -109.86,149.57 -60.67,0 -109.87,-88.89 -109.87,-149.57 a 109.865,109.865 0 1 1 219.73,0 z"
     fill="#7e9ffc"
     id="path108" />
  <polygon
     points="589.05,401.48 579.78,396.19 614.2,396.19 604.93,401.48 "
     fill="#535461"
     id="polygon110"
     transform="translate(-42.361458,28.622607)" />
  <path
     d="m 514.91854,192.50261 c 0,0 -46.33,25.15 -52.95,75.45"
     fill="#ffffff"
     opacity="0.1"
     id="path112" />
</svg>
