<?xml version="1.0" encoding="UTF-8" standalone="no"?>
<svg
   xmlns:dc="http://purl.org/dc/elements/1.1/"
   xmlns:cc="http://creativecommons.org/ns#"
   xmlns:rdf="http://www.w3.org/1999/02/22-rdf-syntax-ns#"
   xmlns:svg="http://www.w3.org/2000/svg"
   xmlns="http://www.w3.org/2000/svg"
   xmlns:sodipodi="http://sodipodi.sourceforge.net/DTD/sodipodi-0.dtd"
   xmlns:inkscape="http://www.inkscape.org/namespaces/inkscape"
   sodipodi:docname="empty-content.svg"
   version="1.1"
   viewBox="0 0 855.31595 676.00569"
   height="676.00569"
   width="855.31595"
   data-name="Layer 1"
   id="aad34d2c-b6e7-481f-91dd-037f78086296"
   inkscape:version="1.0.1 (3bc2e813f5, 2020-09-07)">
  <style
     id="style389" />
  <metadata
     id="metadata127">
    <rdf:RDF>
      <cc:Work
         rdf:about="">
        <dc:format>image/svg+xml</dc:format>
        <dc:type
           rdf:resource="http://purl.org/dc/dcmitype/StillImage" />
        <dc:title>Tree_swing</dc:title>
      </cc:Work>
    </rdf:RDF>
  </metadata>
  <defs
     id="defs125" />
  <sodipodi:namedview
     pagecolor="#ffffff"
     bordercolor="#666666"
     borderopacity="1"
     objecttolerance="10"
     gridtolerance="10"
     guidetolerance="10"
     inkscape:pageopacity="0"
     inkscape:pageshadow="2"
     inkscape:window-width="1443"
     inkscape:window-height="843"
     id="namedview123"
     showgrid="false"
     inkscape:zoom="0.71151816"
     inkscape:cx="392.29983"
     inkscape:cy="343.95054"
     inkscape:window-x="227"
     inkscape:window-y="84"
     inkscape:window-maximized="0"
     inkscape:current-layer="aad34d2c-b6e7-481f-91dd-037f78086296"
     inkscape:document-rotation="0" />
  <title
     id="title2">Tree_swing</title>
  <path
     d="M769.658,696.8505h-2V478.00284a5.97951,5.97951,0,0,0-2.21289-4.65332l1.26368-1.55078a7.97289,7.97289,0,0,1,2.94921,6.2041Z"
     transform="translate(-172.34203 -111.99716)"
     fill="#3f3d56"
     id="path4" />
  <path
     d="M565.922,135.23a17.53713,17.53713,0,0,1,1.15,3.68C566.51207,136.98,566.07207,135.67,565.922,135.23Z"
     transform="translate(-172.34203 -111.99716)"
     fill="#3f3d56"
     id="path6" />
  <path
     d="M583.662,196.37s0,1.38-1.49,6.36Z"
     transform="translate(-172.34203 -111.99716)"
     fill="#3f3d56"
     id="path8" />
  <path
     d="M766.25206,404.68c-39.33,20.5-90.78,38.2-106.19,43.33,11.75-3.06,45.95-7.18,98.94,25.88,66.58,41.53,137.77,13.84,137.77,13.84s-15.82,30.33-49.44,32.3c-33.62006,1.98-121.29-53.39-150.95-37.57-29.67,15.82-43.51-3.96-55.38,35.6-11.86,39.55-33.61,147.65-8.56,208.3L657.482,787H515.102s51.42-137.11,23.07-221.48c-15.87-47.25-38.15-81.47-46.46-98.86-4.17-8.71-4.83-13.19.57-12.97,3.07.13,8.1,1.78,15.57,5.04,0,0-34.28-33.62-45.48-33.62-11.21,0-63.95-5.27-81.08-23.07,0,0-24.39-17.14-67.9,25.05s-32.96,42.19-71.85,38.89c-38.28-3.25-68.27-21.82-69.2-22.4,1.11.45,45.82,18.32,73.15,9.22,27.69-9.23,51.42-44.17,75.81-56.03,24.39-11.87,38.89-27.69,71.85-10.55l-21.72-51.21-5.95-14.03-.01-.02s-7.26-96.24-21.1-102.83c-13.84-6.6-5.27-23.73-30.98-27.03,0,0,31.64-3.96,37.57,17.8,5.94,21.75,46.81006,139.09,46.81006,139.09s25.04,50.09,52.73,38.23c27.69-11.87-10.55-78.44-10.55-78.44l-47.46-21.76s35.6-1.32,57.35,19.12c21.75,20.43,23.07,86.35,23.07,86.35s54.71,7.91,67.9,37.58c0,0,8.57-26.37-7.91-42.19-4.12-3.96-8.44995-10.84-12.62-18.93a167.21656,167.21656,0,0,1-16.34-100.72c2.45-16.86,3.96-33.35,1.27-37.24-5.93-8.57-30.98-61.3-32.96-75.15-1.97-13.84,1.98-42.84,1.98-42.84s.66,35.59,8.57,46.8,30.32,66.58,30.32,66.58,0,69.87,18.46,104.15,54.05,72.51,52.07995,97.56v14.5s39.55-37.57,36.91-50.1c-2.64-12.52-5.93-42.19-30.98-59.98-25.05-17.8-41.53-46.15-23.73-87.02,10.01-22.99,14.39-35.34,16.31-41.75l-10.38,44.39s-6.59,45.48,11.87,61.3c.05.04.09.08.14.12,18.43,15.84,42.7,44.71,42.7,44.71l-.07-1.27-5.2-93.65,1.14,2.5,8.22,18.02,7.78,17.05s36.91-47.46,80.42-63.28c43.5-15.82,70.53-71.19,70.53-71.19l36.92-29.01-30.33,36.26s-9.23,42.84-61.3,73.17c-52.08,30.32-85.69,75.14-87.67,102.83s-3.96,52.08-3.96,52.08,97.56-3.3,119.31-46.15c21.76-42.84,39.56-44.82,39.56-44.82l-12.53,36.91-13.84,31.64s56.69,1.32,86.35,34.94c29.67,33.62,103.49,43.51,103.49,43.51l-41.52,11.2s-39.56-13.18-77.13-37.57S813.05205,380.29,766.25206,404.68Z"
     transform="translate(-172.34203 -111.99716)"
     fill="#3f3d56"
     id="path10" />
  <path
     d="M787.27205,314.74c-4.17,18.46-9.08,36.29-15.98,49.88-21.75,42.85-119.31,46.15-119.31,46.15s.46-5.66,1.16-14.59c24.77-2.04,92.48-10.75,110.15-45.56,1.62-3.18,3.12-6.6,4.54-10.2Z"
     transform="translate(-172.34203 -111.99716)"
     opacity="0.1"
     id="path12" />
  <path
     d="M635.50206,367.26s-24.39-29.01-42.84-44.83c-4.05-3.46-6.88995-8.36-8.86-13.88-.16-.44-.31-.89-.46-1.34.43.42.86.83,1.32,1.22,16.15,13.85,36.86005,37.81,41.77,43.56.69.82,1.07,1.27,1.07,1.27l-5.13-92.42,8.22,18.02Z"
     transform="translate(-172.34203 -111.99716)"
     opacity="0.1"
     id="path14" />
  <path
     d="M649.62056,284.02743c-.14392,16.22967-2.25036,25.88245-2.25036,25.88245s36.89892-47.441,80.39331-63.27155c2.57055-1.62622,5.17846-3.22736,7.84765-4.78162,52.07569-30.32257,61.30433-73.16961,61.30433-73.16961l30.3225-36.25519-36.91442,29.00415s-27.02662,55.37158-70.53272,71.192C690.13509,243.412,663.547,268.8934,649.62056,284.02743Z"
     transform="translate(-172.34203 -111.99716)"
     opacity="0.1"
     id="path16" />
  <path
     d="M592.65779,441.08779v14.50208s39.55115-37.57355,36.91431-50.09809c-2.01636-9.5783-4.43066-29.17681-16.65332-45.82989,5.5094,12.585,7.18628,24.8609,8.65332,31.82989,1.89087,8.98127-17.91138,30.842-29.26758,42.493A30.06054,30.06054,0,0,1,592.65779,441.08779Z"
     transform="translate(-172.34203 -111.99716)"
     opacity="0.1"
     id="path18" />
  <path
     d="M539.6036,341.567c.31323.66809.63623,1.3255.97851,1.9613,10.1084,18.77271,25.348,38.72785,36.75025,57.0578C568.117,382.43374,552.07967,361.67617,539.6036,341.567Z"
     transform="translate(-172.34203 -111.99716)"
     opacity="0.1"
     id="path20" />
  <path
     d="M760.00106,473.89c-21.68445-13.52594-40.219-20.82514-55.35962-24.5232-15.88233,5.978-28.9541,10.43525-35.5315,12.62384,11.79615-3.05352,45.97168-7.1098,98.89112,25.89936,41.5205,25.8988,84.833,24.87793,111.5559,20.44134a69.06583,69.06583,0,0,0,18.21387-20.59851S826.57882,515.4186,760.00106,473.89Z"
     transform="translate(-172.34203 -111.99716)"
     opacity="0.1"
     id="path22" />
  <path
     d="M571.74044,313.5032c-5.31568-13.02454-6.19153-28.52258-.0846-46.68335a142.46131,142.46131,0,0,1,1.1366-19.68964L583.172,202.729c-1.91369,6.40307-6.29223,18.75567-16.31225,41.76446C554.17488,273.62173,558.909,296.383,571.74044,313.5032Z"
     transform="translate(-172.34203 -111.99716)"
     opacity="0.1"
     id="path24" />
  <path
     d="M862.83406,409.28976c-20.57165-23.31452-54.13623-31.09253-72.782-33.67139l-5.57129,12.73456s56.68994,1.31842,86.35327,34.93683c16.44959,18.64294,46.47706,29.98529,69.96827,36.39361l25.5238-6.88733S892.49739,442.90823,862.83406,409.28976Z"
     transform="translate(-172.34203 -111.99716)"
     opacity="0.1"
     id="path26" />
  <path
     d="M459.50228,400.21829c27.68579-11.86536-10.54688-78.44306-10.54688-78.44306l-1.0459-.47937c9.53162,20.11048,23.35535,56.45276,3.59278,64.92243-18.49243,7.92535-35.806-11.79218-45.26685-25.762.34351.988.53211,1.5293.53211,1.5293S431.81649,412.08364,459.50228,400.21829Z"
     transform="translate(-172.34203 -111.99716)"
     opacity="0.1"
     id="path28" />
  <path
     d="M549.81075,443.06533s8.34241-25.71472-7.32971-41.59143c3.84314,13.67755-.67029,27.59143-.67029,27.59143-10.19861-22.94671-45.24243-32.87408-60.59216-36.19415.59533,7.63971.696,12.6206.696,12.6206S536.627,413.402,549.81075,443.06533Z"
     transform="translate(-172.34203 -111.99716)"
     opacity="0.1"
     id="path30" />
  <path
     d="M583.172,202.729c1.48548-4.9704,1.48584-6.35608,1.48584-6.35608Z"
     transform="translate(-172.34203 -111.99716)"
     opacity="0.1"
     id="path32" />
  <path
     d="M254.09566,466.922c.13294-.04279.26795-.08191.4-.12592,27.68579-9.22863,51.4165-44.16546,75.80639-56.03076s38.89185-27.68579,71.85108-10.547c0,0-5.76612-23.60236-16.94-39.10883a153.78662,153.78662,0,0,1,8.94,25.10883c-32.95923-17.1388-47.46131-1.31836-71.85108,10.547s-48.1206,46.80213-75.80639,56.03076-73.16956-9.22863-73.16956-9.22863,30.32251,19.11639,69.21448,22.41229C246.98958,466.35671,250.78572,466.68942,254.09566,466.922Z"
     transform="translate(-172.34203 -111.99716)"
     opacity="0.1"
     id="path34" />
  <path
     d="M374.472,334.96s-1.08.02-3.04.05l-5.95-14.03c.65-.01.99-.02.99-.02s-4.58-60.69995-13.4-88.99c.11.05.2.11.3.16C367.212,238.72,374.472,334.96,374.472,334.96Z"
     transform="translate(-172.34203 -111.99716)"
     opacity="0.1"
     id="path36" />
  <path
     d="M528.91805,787.003c12.07812-37.02557,41.125-139.41113,18.256-207.48632-9.8761-29.39881-19.03027-48.14557-26.76892-60.10535,5.78723,11.32153,12.1145,26.29688,18.76892,46.10535C567.519,649.89242,516.1025,787.003,516.1025,787.003Z"
     transform="translate(-172.34203 -111.99716)"
     opacity="0.1"
     id="path38" />
  <path
     d="M516.852,472.73a73.3005,73.3005,0,0,0-25.14-6.07c-4.17-8.71-4.83-13.19.57-12.97,1.5.27,3.01.59,4.51.96C507.39207,463.45,516.852,472.73,516.852,472.73Z"
     transform="translate(-172.34203 -111.99716)"
     opacity="0.1"
     id="path40" />
  <path
     d="M338.39717,211.72677a17.244,17.244,0,0,0,2.71082,3.46558A19.45432,19.45432,0,0,0,338.39717,211.72677Z"
     transform="translate(-172.34203 -111.99716)"
     opacity="0.1"
     id="path42" />
  <path
     d="M458.8431,319.13851a32.09551,32.09551,0,0,1,2.85779,3.08112c-2.88758-6.94153-6.4535-12.94391-10.85779-17.08112-21.753-20.43475-57.34912-19.11639-57.34912-19.11639l44.64111,20.46051A63.74971,63.74971,0,0,1,458.8431,319.13851Z"
     transform="translate(-172.34203 -111.99716)"
     opacity="0.1"
     id="path44" />
  <path
     d="M506.21468,229.99136c2.69019,3.88568,1.17871,20.37591-1.2771,37.241a167.20277,167.20277,0,0,0,16.3457,100.71418,117.30214,117.30214,0,0,0,7.02381,12.05719,167.36175,167.36175,0,0,1-15.36951-98.77137c2.45581-16.865,3.96729-33.35528,1.2771-37.241-5.93262-8.5694-30.98169-61.30426-32.95923-75.14716a95.93134,95.93134,0,0,1-.413-16.17493c-5.12049-14.5285-5.6095-40.67211-5.6095-40.67211s-3.95508,29.00421-1.97754,42.847S500.28206,221.422,506.21468,229.99136Z"
     transform="translate(-172.34203 -111.99716)"
     opacity="0.1"
     id="path46" />
  <path
     d="M568.05635,138.86141a18.863,18.863,0,0,0-1.19665-3.79272S567.36629,136.49136,568.05635,138.86141Z"
     transform="translate(-172.34203 -111.99716)"
     opacity="0.1"
     id="path48" />
  <path
     d="M335.22933,205.25c5.80957.71118,12.49219,2.49366,17.5896,6.62751-.33252-1.12464-.62256-2.13282-.85352-2.98-5.93274-21.75311-37.57361-17.798-37.57361-17.798C328.69075,192.93264,332.38411,199.04855,335.22933,205.25Z"
     transform="translate(-172.34203 -111.99716)"
     opacity="0.1"
     id="path50" />
  <rect
     x="540.31577"
     y="579.00586"
     width="98"
     height="19"
     fill="#ff63de"
     id="rect92"
     style="fill:#7e9ffc;fill-opacity:1;stroke:none" />
  <path
     d="M761.658,711.00284a8.00916,8.00916,0,0,1-8-8v-225a8.0001,8.0001,0,0,1,13.05079-6.2041l-1.26368,1.55078a5.99957,5.99957,0,0,0-9.78711,4.65332v225a6.00656,6.00656,0,0,0,6,6Z"
     transform="translate(-172.34203 -111.99716)"
     fill="#3f3d56"
     id="path94" />
  <path
     d="M660.85641,753.13486c-9.831,15.07625-7.13727,34.2513-7.13727,34.2513s18.63284-5.26838,28.46381-20.34463,7.13727-34.2513,7.13727-34.2513S670.68738,738.05861,660.85641,753.13486Z"
     transform="translate(-172.34203 -111.99716)"
     fill="#3f3d56"
     id="path100" />
  <path
     d="M668.24105,755.80038c-.77706,17.98159-14.12518,32.00893-14.12518,32.00893s-12.08824-15.12656-11.31118-33.10814,14.12518-32.00893,14.12518-32.00893S669.01812,737.8188,668.24105,755.80038Z"
     transform="translate(-172.34203 -111.99716)"
     fill="#ff63de"
     id="path102" />
  <path
     d="M499.06742,758.83791c4.7,17.37387,20.79838,28.134,20.79838,28.134s8.47829-17.40854,3.77833-34.78242-20.79839-28.134-20.79839-28.134S494.36746,741.464,499.06742,758.83791Z"
     transform="translate(-172.34203 -111.99716)"
     fill="#3f3d56"
     id="path104" />
  <path
     d="M505.97368,755.10407c12.89676,12.55448,14.472,31.85363,14.472,31.85363s-19.33453-1.05568-32.23129-13.61015-14.472-31.85363-14.472-31.85363S493.07692,742.5496,505.97368,755.10407Z"
     transform="translate(-172.34203 -111.99716)"
     fill="#ff63de"
     id="path106" />
  <path
     d="M463.2282,284.04377c-1.12118,17.96341-14.7354,31.73264-14.7354,31.73264s-11.79643-15.35522-10.67525-33.31863,14.73539-31.73264,14.73539-31.73264S464.34938,266.08036,463.2282,284.04377Z"
     transform="translate(-172.34203 -111.99716)"
     fill="#ff63de"
     id="path108" />
  <path
     d="M321.312,170.48223c15.2251,9.59884,20.77833,28.14878,20.77833,28.14878s-19.13154,2.98715-34.35663-6.61169-20.77832-28.14878-20.77832-28.14878S306.08693,160.88339,321.312,170.48223Z"
     transform="translate(-172.34203 -111.99716)"
     fill="#ff63de"
     id="path110" />
  <path
     d="M287.312,389.48223c15.2251,9.59884,20.77833,28.14878,20.77833,28.14878s-19.13154,2.98715-34.35663-6.61169-20.77832-28.14878-20.77832-28.14878S272.08693,379.88339,287.312,389.48223Z"
     transform="translate(-172.34203 -111.99716)"
     fill="#ff63de"
     id="path112"
     style="fill:#ee7da8;fill-opacity:1" />
  <path
     d="M596.83173,202.49827c-4.59147,17.40286-20.62244,28.26318-20.62244,28.26318s-8.58674-17.35531-3.99527-34.75817,20.62244-28.26318,20.62244-28.26318S601.42319,185.09541,596.83173,202.49827Z"
     transform="translate(-172.34203 -111.99716)"
     fill="#ff63de"
     id="path114" />
  <path
     d="M741.66722,216.0677c-5.39655,17.17028-21.91567,27.27261-21.91567,27.27261s-7.76958-17.73618-2.373-34.90646,21.91567-27.27261,21.91567-27.27261S747.06377,198.89742,741.66722,216.0677Z"
     transform="translate(-172.34203 -111.99716)"
     fill="#ff63de"
     id="path116" />
  <path
     d="M898.21162,407.16487c-9.77548,15.11228-28.38884,20.44911-28.38884,20.44911s-2.76415-19.165,7.01134-34.2773S905.223,372.88757,905.223,372.88757,907.98711,392.05259,898.21162,407.16487Z"
     transform="translate(-172.34203 -111.99716)"
     fill="#ff63de"
     id="path118" />
  <path
     d="M866,206"
     transform="translate(-172.34203 -111.99716)"
     fill="#3f3d56"
     id="path120" />
  <g
     id="g149"
     transform="matrix(-1.0111876,0,0,1,365.90921,63.256393)">
    <path
       d="m 170.89718,576.50759 c -9.831,15.07625 -7.13727,34.2513 -7.13727,34.2513 0,0 18.63284,-5.26838 28.46381,-20.34463 9.83097,-15.07625 7.13727,-34.2513 7.13727,-34.2513 0,0 -18.63284,5.26838 -28.46381,20.34463 z"
       fill="#3f3d56"
       id="path100-4" />
    <path
       d="m 178.28182,579.17311 c -0.77706,17.98159 -14.12518,32.00893 -14.12518,32.00893 0,0 -12.08824,-15.12656 -11.31118,-33.10814 0.77706,-17.98158 14.12518,-32.00893 14.12518,-32.00893 0,0 12.08825,15.12656 11.31118,33.10814 z"
       fill="#ff63de"
       id="path102-3" />
  </g>
  <path
     style="fill:#ee7da8;fill-opacity:1;stroke:none;stroke-width:1.0872"
     d="m 195.36611,667.35868 c -11.13271,-17.34882 -11.72083,-34.45127 -1.76869,-51.43331 2.94987,-5.03357 3.14565,-5.1616 5.13697,-3.35948 1.13862,1.03043 3.33218,4.0269 4.87458,6.65881 7.1903,12.26931 8.84249,25.37175 4.73632,37.56071 -2.42191,7.18933 -7.16724,16.04342 -8.59844,16.04342 -0.47881,0 -2.45014,-2.46157 -4.38074,-5.47015 z"
     id="path1222" />
  <path
     style="fill:#ee7da8;fill-opacity:1;stroke:none;stroke-width:1.0872"
     d="m 335.417,671.81686 c -16.37393,-5.23539 -26.64773,-16.25742 -31.85718,-34.17732 -1.005,-3.45707 -1.52131,-6.59155 -1.14735,-6.96551 1.13391,-1.13391 11.99506,1.59378 18.3874,4.61784 11.8528,5.60727 21.31065,17.1191 24.58696,29.92655 0.68835,2.69082 1.50001,5.74857 1.8037,6.795 0.73449,2.5309 -3.46238,2.46083 -11.77353,-0.19656 z"
     id="path1224" />
  <path
     style="fill:#ee7da8;fill-opacity:1;stroke:none;stroke-width:1.0872"
     d="m 273.7946,198.78832 c -5.34943,-8.72768 -7.12722,-15.25962 -7.096,-26.07193 0.0255,-8.82518 0.4487,-11.24233 2.90781,-16.60782 2.97074,-6.48178 9.28968,-16.00821 10.61834,-16.00821 1.21337,0 7.30747,13.12364 8.72465,18.78852 2.16531,8.65535 0.87734,20.82083 -3.07536,29.04832 -1.86729,3.88675 -4.82717,8.76975 -6.57751,10.85112 l -3.18243,3.78431 z"
     id="path1226" />
  <path
     style="fill:#ee7da8;fill-opacity:1;stroke:none;stroke-width:1.0872"
     d="M 152.24771,85.633088 C 138.05683,83.26394 126.42402,74.286364 118.92873,59.919293 l -4.11215,-7.882207 h 6.52898 c 19.26763,0 33.06566,7.830359 42.99233,24.398063 5.38213,8.982823 5.2003,10.425105 -1.2941,10.26527 -2.84031,-0.06991 -7.69855,-0.550202 -10.79608,-1.067331 z"
     id="path1228" />
  <path
     style="fill:#ee7da8;fill-opacity:1;stroke:none;stroke-width:1.0872"
     d="m 402.45316,113.52001 c -0.88709,-2.12311 -2.17665,-7.48644 -2.86569,-11.91853 -1.06394,-6.843492 -0.97704,-9.175798 0.57638,-15.470709 2.21191,-8.963258 6.95667,-17.081401 14.04202,-24.025483 4.85093,-4.754204 5.39643,-5.020291 6.69695,-3.266673 2.46112,3.318559 4.18274,14.457439 3.68868,23.865724 -0.39493,7.520752 -1.05084,10.097162 -3.95591,15.538787 -3.79349,7.105754 -11.10598,16.213054 -14.45851,18.007284 -1.8243,0.97633 -2.33011,0.60546 -3.72392,-2.7304 z"
     id="path1230" />
  <path
     style="fill:#9b63f8;fill-opacity:1;stroke:none;stroke-width:0;fill-rule:nonzero;stroke-miterlimit:4;stroke-dasharray:none"
     d="m 545.93757,125.70878 c -0.75881,-2.54894 -1.39089,-9.77146 -1.40463,-16.05004 -0.0223,-10.169613 0.29649,-12.101653 2.92022,-17.700964 2.78534,-5.944203 13.26869,-18.264212 17.44184,-20.497614 2.43238,-1.301774 3.68329,1.678158 5.20325,12.395293 2.0691,14.589041 -2.02458,26.641325 -12.93374,38.078435 -8.73326,9.15591 -9.54389,9.42847 -11.22694,3.77489 z"
     id="path1232" />
  <path
     style="fill:#ee7da8;fill-opacity:1;stroke:none;stroke-width:1.0872"
     d="m 697.61409,312.32069 c -1.32236,-3.44602 1.76643,-19.36108 5.06337,-26.08906 4.00824,-8.17953 12.51953,-16.43744 21.73808,-21.09095 8.29941,-4.18953 9.04618,-3.58739 8.07489,6.511 -0.87075,9.05306 -4.05942,18.66088 -8.18172,24.65243 -3.49594,5.08119 -11.75443,11.75397 -19.12349,15.45161 -5.48465,2.75209 -6.69713,2.84256 -7.57113,0.56497 z"
     id="path1234" />
  <path
     style="fill:#ee7da8;fill-opacity:1;stroke:none;stroke-width:1.0872"
     d="m 478.31629,669.29542 c -5.16226,-8.89338 -7.46972,-17.92241 -6.94493,-27.17532 0.40436,-7.12955 1.16363,-9.80553 4.95058,-17.44791 2.46013,-4.96476 5.41719,-9.88133 6.57124,-10.92574 2.02648,-1.83394 2.19273,-1.73772 4.85917,2.81221 8.1047,13.82963 9.47342,29.89566 3.63607,42.68015 -3.3038,7.2357 -8.11865,14.67722 -9.49654,14.67722 -0.49143,0 -2.10044,-2.07928 -3.57559,-4.62061 z"
     id="path1236" />
  <path
     style="fill:#9b63f8;fill-opacity:1;fill-rule:nonzero;stroke:none;stroke-width:0;stroke-miterlimit:4;stroke-dasharray:none"
     d="m 114.51999,303.87628 c -8.46122,-2.30343 -15.252504,-6.41899 -21.209179,-12.85291 -6.758601,-7.3001 -12.369278,-17.75694 -10.519886,-19.60633 1.701022,-1.70103 17.558185,0.42606 25.365785,3.40256 10.14971,3.8694 19.75868,13.77538 24.82323,25.59049 l 2.1196,4.94482 -7.84357,-0.0734 c -4.31397,-0.0404 -10.04515,-0.67272 -12.73598,-1.40525 z"
     id="path1238" />
  <path
     style="fill:#9b63f8;fill-opacity:1;fill-rule:nonzero;stroke:none;stroke-width:0;stroke-miterlimit:4;stroke-dasharray:none"
     d="m 195.24328,666.04549 c -6.07324,-10.02547 -8.09575,-17.49523 -7.63044,-28.18161 0.35862,-8.23616 0.92085,-10.44939 4.48799,-17.66701 2.24291,-4.53821 4.44852,-8.2513 4.90137,-8.2513 1.21281,0 4.93282,5.31624 8.11708,11.60007 4.14986,8.18934 5.74731,18.37218 4.19404,26.73449 -1.27442,6.86112 -7.417,20.56891 -9.48307,21.16245 -0.61722,0.17731 -2.68135,-2.25138 -4.58697,-5.39709 z"
     id="path1240" />
</svg>
