<?xml version="1.0" encoding="UTF-8" standalone="no"?>
<svg
   xmlns:dc="http://purl.org/dc/elements/1.1/"
   xmlns:cc="http://creativecommons.org/ns#"
   xmlns:rdf="http://www.w3.org/1999/02/22-rdf-syntax-ns#"
   xmlns:svg="http://www.w3.org/2000/svg"
   xmlns="http://www.w3.org/2000/svg"
   xmlns:sodipodi="http://sodipodi.sourceforge.net/DTD/sodipodi-0.dtd"
   xmlns:inkscape="http://www.inkscape.org/namespaces/inkscape"
   id="b7ff5eec-b031-4b55-ad80-a01491e5732a"
   data-name="Layer 1"
   width="816.66119"
   height="433.30893"
   viewBox="0 0 816.6612 433.30894"
   version="1.1"
   sodipodi:docname="no-friends.svg"
   inkscape:version="1.0.1 (3bc2e813f5, 2020-09-07)">
  <metadata
     id="metadata341">
    <rdf:RDF>
      <cc:Work
         rdf:about="">
        <dc:format>image/svg+xml</dc:format>
        <dc:type
           rdf:resource="http://purl.org/dc/dcmitype/StillImage" />
      </cc:Work>
    </rdf:RDF>
  </metadata>
  <defs
     id="defs339" />
  <sodipodi:namedview
     pagecolor="#ffffff"
     bordercolor="#666666"
     borderopacity="1"
     objecttolerance="10"
     gridtolerance="10"
     guidetolerance="10"
     inkscape:pageopacity="0"
     inkscape:pageshadow="2"
     inkscape:window-width="1717"
     inkscape:window-height="826"
     id="namedview337"
     showgrid="false"
     inkscape:zoom="1.0350089"
     inkscape:cx="396.92992"
     inkscape:cy="282.07455"
     inkscape:window-x="118"
     inkscape:window-y="26"
     inkscape:window-maximized="0"
     inkscape:current-layer="b7ff5eec-b031-4b55-ad80-a01491e5732a" />
  <path
     d="m 13.492984,395.64507 a 17.16536,17.16536 0 0 1 34.33071,0"
     fill="#f2f2f2"
     id="path2" />
  <path
     d="m 30.658344,395.64507 a 0.464,0.464 0 0 1 -0.46393,-0.46392 v -9.04661 a 0.46393,0.46393 0 1 1 0.92786,0 v 9.04661 a 0.464,0.464 0 0 1 -0.46393,0.46392 z"
     fill="#ccc"
     id="path4" />
  <path
     d="m 30.658114,392.53644 a 0.4618,0.4618 0 0 1 -0.302,-0.11191 l -5.56709,-4.77814 a 0.46392,0.46392 0 1 1 0.60432,-0.704 l 5.56715,4.77814 a 0.46394,0.46394 0 0 1 -0.30242,0.816 z"
     fill="#ccc"
     id="path6" />
  <path
     d="m 66.380834,395.64507 a 17.16536,17.16536 0 0 1 34.330706,0"
     fill="#f2f2f2"
     id="path8" />
  <path
     d="m 83.546194,395.64507 a 0.46394,0.46394 0 0 1 -0.46393,-0.46392 v -9.04661 a 0.46393,0.46393 0 0 1 0.92786,0 v 9.04661 a 0.464,0.464 0 0 1 -0.46393,0.46392 z"
     fill="#ccc"
     id="path10" />
  <path
     d="m 83.545964,392.53644 a 0.4618,0.4618 0 0 1 -0.302,-0.11191 l -5.56714,-4.77814 a 0.46394,0.46394 0 1 1 0.60437,-0.704 l 5.56714,4.77814 a 0.46393,0.46393 0 0 1 -0.30241,0.816 z"
     fill="#ccc"
     id="path12" />
  <circle
     cx="718.76074"
     cy="51.700073"
     r="33"
     fill="#f2f2f2"
     id="circle14" />
  <ellipse
     cx="79.475426"
     cy="425.3089"
     rx="30"
     ry="7"
     fill="#f2f2f2"
     id="ellipse16" />
  <path
     d="m 64.16118,137.96215 c 7.86794,-24.56856 27.0799,-43.622364 49.86392,-54.954934 27.03309,-13.446 58.097,-14.96842 87.44924,-9.73524 31.68593,5.64926 61.30021,18.67245 89.96562,32.884474 28.11677,13.94 55.78,28.65962 85.02063,40.1796 a 550.37542,550.37542 0 0 0 182.94655,37.89547 c 56.43083,1.88251 116.76658,-4.30052 165.08463,-36.018 44.27252,-29.06184 72.44421,-77.005534 87.11694,-126.981624 q 2.81766,-9.59714 5.00971,-19.3593198 c 0.42636,-1.87992004 -2.46532,-2.68258004 -2.89284,-0.79752 -11.8358,52.1876898 -37.07427,103.7670038 -80.1978,137.0339638 -46.6408,35.98026 -107.85407,44.2979 -165.1368,43.3461 A 547.717,547.717 0 0 1 383.05922,145.69092 C 353.06648,134.27259 324.76339,119.44558 296.09971,105.13124 268.06563,91.131316 239.244,78.026156 208.41683,71.569306 c -28.14937,-5.896 -58.28757,-6.25529 -85.42785,4.2364 -22.34794,8.6391 -42.72459,24.03773 -54.64936,45.102474 a 86.49412,86.49412 0 0 0 -7.07128,16.25645 c -0.59019,1.843 2.30536,2.632 2.89284,0.79752 z"
     fill="#f2f2f2"
     id="path18" />
  <path
     d="m 492.46361,367.679 a 1,1 0 0 0 0,-2 h -9.5 v -4 h 9.5 a 1,1 0 0 0 0,-2 h -81 a 1,1 0 0 0 0,2 h 9.5 v 4 h -9.5 a 1,1 0 0 0 0,2 h 9.5 v 4 h -9.5 a 1,1 0 0 0 0,2 h 9.5 v 4 h -8.5 a 2,2 0 0 0 0,4 h 8.0918 a 1.49061,1.49061 0 0 0 -0.0918,0.5 v 14 a 1.5,1.5 0 0 0 3,0 v -14 a 1.4906,1.4906 0 0 0 -0.0918,-0.5 h 57.18359 a 1.49061,1.49061 0 0 0 -0.0918,0.5 v 14 a 1.5,1.5 0 0 0 3,0 v -14 a 1.4906,1.4906 0 0 0 -0.0918,-0.5 h 8.09179 a 2,2 0 0 0 0,-4 h -8.5 v -4 h 9.5 a 1,1 0 0 0 0,-2 h -9.5 v -4 z m -69.5,-6 h 58 v 4 h -58 z m 58,16 h -58 v -4 h 58 z m 0,-6 h -58 v -4 h 58 z"
     fill="#3f3d56"
     id="path20" />
  <path
     d="m 187.47545,325.70733 c 0,-17.66118 -14.3269,-59.57029 -32,-59.57029 -17.6731,0 -32,41.90911 -32,59.57029 a 32.000035,32.000035 0 0 0 64.00007,0 z"
     fill="#e6e6e6"
     id="path22" />
  <path
     d="m 179.47545,325.70733 c 0,-17.66118 -14.3269,-59.57029 -32,-59.57029 -17.6731,0 -32,41.90911 -32,59.57029 a 32.000035,32.000035 0 0 0 64.00007,0 z"
     fill="#f2f2f2"
     id="path24" />
  <path
     d="m 148.47542,397.25784 a 1.00005,1.00005 0 0 1 -1,-1 v -89.14062 a 1,1 0 0 1 2,0 v 89.14062 a 1,1 0 0 1 -1,1 z"
     fill="#ccc"
     id="path26" />
  <path
     d="m 148.47542,321.7305 a 1,1 0 0 1 -0.707,-1.707 l 13.07764,-13.07813 a 0.99989142,0.99989142 0 0 1 1.41406,1.41406 l -13.07763,13.07813 a 0.99638,0.99638 0 0 1 -0.70707,0.29294 z"
     fill="#ccc"
     id="path28" />
  <path
     d="m 516.47542,397.25784 a 1.00005,1.00005 0 0 1 -1,-1 v -89.14062 a 1,1 0 0 1 2,0 v 89.14062 a 1,1 0 0 1 -1,1 z"
     fill="#3f3d56"
     id="path30" />
  <path
     d="m 623.47545,325.70733 c 0,-17.66118 -14.3269,-59.57029 -32,-59.57029 -17.6731,0 -32,41.90911 -32,59.57029 a 32.000035,32.000035 0 0 0 64.00007,0 z"
     fill="#e6e6e6"
     id="path32" />
  <path
     d="m 615.47545,325.70733 c 0,-17.66118 -14.3269,-59.57029 -32,-59.57029 -17.6731,0 -32,41.90911 -32,59.57029 a 32.000035,32.000035 0 0 0 64.00007,0 z"
     fill="#f2f2f2"
     id="path34" />
  <path
     d="m 584.47542,397.25784 a 1.00005,1.00005 0 0 1 -1,-1 v -89.14062 a 1,1 0 0 1 2,0 v 89.14062 a 1,1 0 0 1 -1,1 z"
     fill="#ccc"
     id="path36" />
  <path
     d="m 584.47542,321.7305 a 1,1 0 0 1 -0.707,-1.707 l 13.07764,-13.07813 a 0.99989142,0.99989142 0 0 1 1.41406,1.41406 l -13.07763,13.07813 a 0.99638,0.99638 0 0 1 -0.70707,0.29294 z"
     fill="#ccc"
     id="path38" />
  <path
     d="m 254.47542,51.808916 h -16 a 4.505,4.505 0 0 1 -4.5,-4.5 v -37 a 4.505,4.505 0 0 1 4.5,-4.4999998 h 16 a 4.505,4.505 0 0 1 4.5,4.4999998 v 37 a 4.505,4.505 0 0 1 -4.5,4.5 z"
     fill="#e6e6e6"
     id="path40" />
  <path
     d="m 317.47542,396.80892 h -82 a 8.50958,8.50958 0 0 1 -8.5,-8.5 V 57.308916 a 8.50958,8.50958 0 0 1 8.5,-8.5 h 82 a 8.5095,8.5095 0 0 1 8.5,8.5 V 388.30892 a 8.5095,8.5095 0 0 1 -8.5,8.5 z"
     fill="#e6e6e6"
     id="path42" />
  <path
     d="m 268.47542,396.80892 h -82 a 8.50958,8.50958 0 0 1 -8.5,-8.5 V 57.308916 a 8.50958,8.50958 0 0 1 8.5,-8.5 h 82 a 8.50958,8.50958 0 0 1 8.5,8.5 V 388.30892 a 8.50958,8.50958 0 0 1 -8.5,8.5 z"
     fill="#f2f2f2"
     id="path44" />
  <path
     d="m 239.47542,51.808916 h -16 a 4.505,4.505 0 0 1 -4.5,-4.5 v -37 a 4.505,4.505 0 0 1 4.5,-4.4999998 h 16 a 4.505,4.505 0 0 1 4.5,4.4999998 v 37 a 4.505,4.505 0 0 1 -4.5,4.5 z"
     fill="#f2f2f2"
     id="path46" />
  <path
     d="m 218.47542,123.80892 h -19 a 2.50286,2.50286 0 0 1 -2.5,-2.5 V 92.308916 a 2.50286,2.50286 0 0 1 2.5,-2.5 h 19 a 2.50286,2.50286 0 0 1 2.5,2.5 v 29.000004 a 2.50286,2.50286 0 0 1 -2.5,2.5 z"
     fill="#fff"
     id="path48" />
  <path
     d="m 255.47542,123.80892 h -19 a 2.50286,2.50286 0 0 1 -2.5,-2.5 V 92.308916 a 2.50286,2.50286 0 0 1 2.5,-2.5 h 19 a 2.50286,2.50286 0 0 1 2.5,2.5 v 29.000004 a 2.50286,2.50286 0 0 1 -2.5,2.5 z"
     fill="#fff"
     id="path50" />
  <path
     d="m 218.47542,176.80892 h -19 a 2.50286,2.50286 0 0 1 -2.5,-2.5 v -29 a 2.50286,2.50286 0 0 1 2.5,-2.5 h 19 a 2.50286,2.50286 0 0 1 2.5,2.5 v 29 a 2.50286,2.50286 0 0 1 -2.5,2.5 z"
     fill="#fff"
     id="path52" />
  <path
     d="m 255.47542,176.80892 h -19 a 2.50286,2.50286 0 0 1 -2.5,-2.5 v -29 a 2.50286,2.50286 0 0 1 2.5,-2.5 h 19 a 2.50286,2.50286 0 0 1 2.5,2.5 v 29 a 2.50286,2.50286 0 0 1 -2.5,2.5 z"
     fill="#fff"
     id="path54" />
  <path
     d="m 218.47542,229.80892 h -19 a 2.50286,2.50286 0 0 1 -2.5,-2.5 v -29 a 2.50286,2.50286 0 0 1 2.5,-2.5 h 19 a 2.50286,2.50286 0 0 1 2.5,2.5 v 29 a 2.50286,2.50286 0 0 1 -2.5,2.5 z"
     fill="#fff"
     id="path56" />
  <path
     d="m 255.47542,229.80892 h -19 a 2.50286,2.50286 0 0 1 -2.5,-2.5 v -29 a 2.50286,2.50286 0 0 1 2.5,-2.5 h 19 a 2.50286,2.50286 0 0 1 2.5,2.5 v 29 a 2.50286,2.50286 0 0 1 -2.5,2.5 z"
     fill="#fff"
     id="path58" />
  <path
     d="m 218.47542,282.80892 h -19 a 2.50286,2.50286 0 0 1 -2.5,-2.5 v -29 a 2.50286,2.50286 0 0 1 2.5,-2.5 h 19 a 2.50286,2.50286 0 0 1 2.5,2.5 v 29 a 2.50286,2.50286 0 0 1 -2.5,2.5 z"
     fill="#fff"
     id="path60" />
  <path
     d="m 255.47542,282.80892 h -19 a 2.50286,2.50286 0 0 1 -2.5,-2.5 v -29 a 2.50286,2.50286 0 0 1 2.5,-2.5 h 19 a 2.50286,2.50286 0 0 1 2.5,2.5 v 29 a 2.50286,2.50286 0 0 1 -2.5,2.5 z"
     fill="#fff"
     id="path62" />
  <path
     d="m 218.47542,335.80892 h -19 a 2.50286,2.50286 0 0 1 -2.5,-2.5 v -29 a 2.50286,2.50286 0 0 1 2.5,-2.5 h 19 a 2.50286,2.50286 0 0 1 2.5,2.5 v 29 a 2.50286,2.50286 0 0 1 -2.5,2.5 z"
     fill="#fff"
     id="path64" />
  <path
     d="m 255.47542,335.80892 h -19 a 2.50286,2.50286 0 0 1 -2.5,-2.5 v -29 a 2.50286,2.50286 0 0 1 2.5,-2.5 h 19 a 2.50286,2.50286 0 0 1 2.5,2.5 v 29 a 2.50286,2.50286 0 0 1 -2.5,2.5 z"
     fill="#fff"
     id="path66" />
  <path
     d="m 667.47542,226.80892 h -16 a 4.50508,4.50508 0 0 1 -4.5,-4.5 v -21 a 4.50508,4.50508 0 0 1 4.5,-4.5 h 16 a 4.50507,4.50507 0 0 1 4.5,4.5 v 21 a 4.50507,4.50507 0 0 1 -4.5,4.5 z"
     fill="#e6e6e6"
     id="path68" />
  <path
     d="m 802.47542,397.80892 h -82 a 8.50951,8.50951 0 0 1 -8.5,-8.5 v -159 a 8.50951,8.50951 0 0 1 8.5,-8.5 h 82 a 8.5095,8.5095 0 0 1 8.5,8.5 v 159 a 8.5095,8.5095 0 0 1 -8.5,8.5 z"
     fill="#e6e6e6"
     id="path70" />
  <path
     d="m 753.47542,397.80892 h -142 a 8.50951,8.50951 0 0 1 -8.5,-8.5 v -159 a 8.50951,8.50951 0 0 1 8.5,-8.5 h 142 a 8.5095,8.5095 0 0 1 8.5,8.5 v 159 a 8.5095,8.5095 0 0 1 -8.5,8.5 z"
     fill="#f2f2f2"
     id="path72" />
  <path
     d="m 652.47542,226.80892 h -16 a 4.50508,4.50508 0 0 1 -4.5,-4.5 v -21 a 4.50508,4.50508 0 0 1 4.5,-4.5 h 16 a 4.50507,4.50507 0 0 1 4.5,4.5 v 21 a 4.50507,4.50507 0 0 1 -4.5,4.5 z"
     fill="#f2f2f2"
     id="path74" />
  <path
     d="m 673.47542,300.30892 h -19 a 2.50295,2.50295 0 0 1 -2.5,-2.5 v -29 a 2.50295,2.50295 0 0 1 2.5,-2.5 h 19 a 2.50294,2.50294 0 0 1 2.5,2.5 v 29 a 2.50294,2.50294 0 0 1 -2.5,2.5 z"
     fill="#fff"
     id="path76" />
  <path
     d="m 710.47542,300.30892 h -19 a 2.50295,2.50295 0 0 1 -2.5,-2.5 v -29 a 2.50295,2.50295 0 0 1 2.5,-2.5 h 19 a 2.50294,2.50294 0 0 1 2.5,2.5 v 29 a 2.50294,2.50294 0 0 1 -2.5,2.5 z"
     fill="#fff"
     id="path78" />
  <path
     d="m 673.47542,353.30892 h -19 a 2.50295,2.50295 0 0 1 -2.5,-2.5 v -29 a 2.50295,2.50295 0 0 1 2.5,-2.5 h 19 a 2.50294,2.50294 0 0 1 2.5,2.5 v 29 a 2.50294,2.50294 0 0 1 -2.5,2.5 z"
     fill="#fff"
     id="path80" />
  <path
     d="m 710.47542,353.30892 h -19 a 2.50295,2.50295 0 0 1 -2.5,-2.5 v -29 a 2.50295,2.50295 0 0 1 2.5,-2.5 h 19 a 2.50294,2.50294 0 0 1 2.5,2.5 v 29 a 2.50294,2.50294 0 0 1 -2.5,2.5 z"
     fill="#fff"
     id="path82" />
  <path
     d="M 815.31433,398.30892 H 1.4308678 a 0.77824358,1 0 1 1 0,-2 H 815.31433 a 0.77824358,1 0 0 1 0,2 z"
     fill="#e6e6e6"
     id="path84"
     style="stroke-width:0.882181" />
  <path
     d="m 333.47542,433.30892 h -93 a 1,1 0 0 1 0,-2 h 93 a 1,1 0 1 1 0,2 z"
     fill="#e6e6e6"
     id="path86" />
  <path
     d="m 564.47542,433.30892 h -93 a 1,1 0 0 1 0,-2 h 93 a 1,1 0 1 1 0,2 z"
     fill="#e6e6e6"
     id="path88" />
  <path
     d="m 795.47542,433.30892 h -93 a 1,1 0 0 1 0,-2 h 93 a 1,1 0 1 1 0,2 z"
     fill="#e6e6e6"
     id="path90" />
  <path
     d="m 386.47545,325.70733 c 0,-17.66118 -14.3269,-59.57029 -32,-59.57029 -17.6731,0 -32,41.90911 -32,59.57029 a 32.000035,32.000035 0 0 0 64.00007,0 z"
     fill="#e6e6e6"
     id="path92" />
  <path
     d="m 378.47545,325.70733 c 0,-17.66118 -14.3269,-59.57029 -32,-59.57029 -17.6731,0 -32,41.90911 -32,59.57029 a 32.000035,32.000035 0 0 0 64.00007,0 z"
     fill="#f2f2f2"
     id="path94" />
  <path
     d="m 347.47542,397.25784 a 1.00005,1.00005 0 0 1 -1,-1 v -89.14062 a 1,1 0 0 1 2,0 v 89.14062 a 1,1 0 0 1 -1,1 z"
     fill="#ccc"
     id="path96" />
  <path
     d="m 347.47542,321.7305 a 1,1 0 0 1 -0.707,-1.707 l 13.07764,-13.07813 a 0.99989142,0.99989142 0 0 1 1.41406,1.41406 l -13.07763,13.07813 a 0.99638,0.99638 0 0 1 -0.70707,0.29294 z"
     fill="#ccc"
     id="path98" />
  <path
     d="m 527.47524,336.80892 h -22 a 2.50231,2.50231 0 0 1 -2.5,-2.5 v -22 a 2.50231,2.50231 0 0 1 2.5,-2.5 h 22 a 2.50231,2.50231 0 0 1 2.5,2.5 v 22 a 2.50231,2.50231 0 0 1 -2.5,2.5 z"
     fill="#3f3d56"
     id="path108" />
  <polygon
     points="182.185,408.309 186.405,408.309 187.645,411.309 180.945,411.309 "
     fill="#f2f2f2"
     id="polygon236"
     transform="translate(-29.31986)" />
  <path
     d="m 514.77992,63.986357 13.71849,-11.08826 c -10.65729,-1.18823 -15.03618,4.68553 -16.82828,9.33465 -8.32592,-3.4938 -17.38965,1.08499 -17.38965,1.08499 l 27.44819,10.0701 a 20.770734,20.990488 0 0 0 -6.94875,-9.40148 z"
     fill="#3f3d56"
     id="path40-7"
     style="stroke-width:1.07785" />
  <path
     d="m 486.83768,89.303067 13.71849,-11.08826 c -10.6573,-1.18822 -15.03618,4.68553 -16.82828,9.33465 -8.32592,-3.4938 -17.38966,1.085 -17.38966,1.085 l 27.44818,10.0701 a 20.770734,20.990488 0 0 0 -6.94873,-9.40149 z"
     fill="#3f3d56"
     id="path40-1-0"
     style="stroke-width:1.07785" />
  <path
     style="fill:#ee7da8;fill-opacity:1;stroke-width:0;paint-order:markers stroke fill"
     d="m 709.15612,81.920616 c -19.62842,-6.99019 -27.54925,-26.15233 -18.52011,-44.80404 7.35032,-15.183738 25.18553,-21.584653 40.84347,-14.658401 11.34478,5.018336 17.46113,13.773078 18.51692,26.504506 1.94191,23.416911 -19.36014,40.607576 -40.84028,32.957935 z"
     id="path1903" />
  <path
     style="fill:#7e9ffc;fill-opacity:1;stroke-width:0;paint-order:markers stroke fill"
     d="m 198.62245,122.98193 c -1.67924,-0.67759 -1.724,-30.341155 -0.0483,-32.016847 1.57919,-1.579188 19.2902,-1.579188 20.86939,0 0.80326,0.803256 1.15941,5.817022 1.15941,16.321607 0,12.93466 -0.22453,15.24836 -1.52828,15.74866 -1.8101,0.6946 -18.7078,0.65046 -20.45221,-0.0534 z"
     id="path1911" />
  <path
     style="fill:#7e9ffc;fill-opacity:1;stroke-width:0;paint-order:markers stroke fill"
     d="m 235.31922,122.49282 c -0.83839,-0.8384 -1.18983,-5.54604 -1.18983,-15.93832 0,-13.592561 0.14648,-14.826878 1.86884,-15.748658 2.19702,-1.175809 18.34248,-1.326892 20.13639,-0.188429 0.93575,0.593844 1.16836,4.602838 0.96618,16.651727 l -0.26629,15.86958 -10.16273,0.27196 c -7.08081,0.18949 -10.52355,-0.0889 -11.35256,-0.91786 z"
     id="path1913" />
  <path
     style="fill:#7e9ffc;fill-opacity:1;stroke-width:0;paint-order:markers stroke fill"
     d="m 235.2888,175.60203 c -1.7791,-1.7791 -1.60934,-30.11435 0.18937,-31.60715 0.88271,-0.73258 4.80557,-1.02386 11.35256,-0.84293 l 10.00378,0.27645 0.26629,15.86958 c 0.20218,12.04889 -0.0304,16.05788 -0.96618,16.65172 -1.99838,1.26823 -19.52219,0.97596 -20.84582,-0.34767 z"
     id="path1915" />
  <path
     style="fill:#7e9ffc;fill-opacity:1;stroke-width:0;paint-order:markers stroke fill"
     d="m 198.57414,175.60203 c -0.80325,-0.80325 -1.15941,-5.81702 -1.15941,-16.3216 0,-12.93466 0.22453,-15.24836 1.52829,-15.74866 2.8656,-1.09964 19.28687,-0.64069 20.50051,0.57295 1.62077,1.62077 1.62077,29.87655 0,31.49731 -1.57919,1.57919 -19.2902,1.57919 -20.86939,0 z"
     id="path1917" />
  <path
     style="fill:#7e9ffc;fill-opacity:1;stroke-width:0;paint-order:markers stroke fill"
     d="m 197.85346,227.71843 c -0.27017,-0.70405 -0.37072,-8.00091 -0.22343,-16.21524 l 0.26779,-14.93515 h 11.11102 11.11101 v 15.94189 15.94189 l -10.88758,0.27336 c -8.34413,0.20949 -11.00235,-0.0257 -11.37881,-1.00675 z"
     id="path1919" />
  <path
     style="fill:#7e9ffc;fill-opacity:1;stroke-width:0;paint-order:markers stroke fill"
     d="m 234.77351,228.29079 c -0.35426,-0.35426 -0.64412,-7.25749 -0.64412,-15.3405 0,-11.39816 0.3027,-14.9476 1.34878,-15.81577 0.88271,-0.73259 4.80557,-1.02386 11.35256,-0.84294 l 10.00378,0.27646 0.26491,16.18343 0.2649,16.18344 h -10.97335 c -6.03534,0 -11.2632,-0.28985 -11.61746,-0.64412 z"
     id="path1921" />
  <path
     style="fill:#7e9ffc;fill-opacity:1;stroke-width:0;paint-order:markers stroke fill"
     d="m 234.77351,281.43043 c -0.92719,-0.92719 -0.76711,-29.54993 0.17356,-31.03247 0.58191,-0.91712 3.54803,-1.16988 11.33776,-0.96617 l 10.54968,0.27589 0.26491,16.18343 0.2649,16.18344 h -10.97335 c -6.03534,0 -11.2632,-0.28986 -11.61746,-0.64412 z"
     id="path1923" />
  <path
     style="fill:#7e9ffc;fill-opacity:1;stroke-width:0;paint-order:markers stroke fill"
     d="m 197.85346,280.85807 c -0.27017,-0.70405 -0.37072,-8.00091 -0.22343,-16.21525 l 0.26779,-14.93514 h 11.11102 11.11101 v 15.94189 15.94189 l -10.88758,0.27335 c -8.34413,0.2095 -11.00235,-0.0257 -11.37881,-1.00674 z"
     id="path1925" />
  <path
     style="fill:#7e9ffc;fill-opacity:1;stroke-width:0;paint-order:markers stroke fill"
     d="m 197.85346,333.99771 c -0.27017,-0.70405 -0.37072,-8.00091 -0.22343,-16.21525 l 0.26779,-14.93515 h 11.11102 11.11101 v 15.9419 15.94189 l -10.88758,0.27335 c -8.34413,0.2095 -11.00235,-0.0257 -11.37881,-1.00674 z"
     id="path1927" />
  <path
     style="fill:#7e9ffc;fill-opacity:1;stroke-width:0;paint-order:markers stroke fill"
     d="m 234.56812,333.99771 c -0.27017,-0.70405 -0.37072,-8.00091 -0.22343,-16.21525 l 0.26779,-14.93515 h 11.11102 11.11101 v 15.9419 15.94189 l -10.88759,0.27335 c -8.34412,0.2095 -11.00234,-0.0257 -11.3788,-1.00674 z"
     id="path1929" />
  <path
     style="fill:#7e9ffc;fill-opacity:1;stroke-width:0;paint-order:markers stroke fill"
     d="m 652.922,298.24923 c -0.27017,-0.70406 -0.37072,-8.00092 -0.22343,-16.21525 l 0.26779,-14.93515 h 11.11102 11.11101 v 15.94189 15.94189 l -10.88759,0.27336 c -8.34412,0.2095 -11.00234,-0.0257 -11.3788,-1.00674 z"
     id="path1931" />
  <path
     style="fill:#7e9ffc;fill-opacity:1;stroke-width:0;paint-order:markers stroke fill"
     d="m 689.84205,298.82158 c -0.35427,-0.35426 -0.64412,-7.25749 -0.64412,-15.3405 0,-11.39815 0.3027,-14.9476 1.34878,-15.81577 0.88271,-0.73258 4.80557,-1.02386 11.35256,-0.84293 l 10.00378,0.27645 0.2649,16.18343 0.26491,16.18344 h -10.97335 c -6.03534,0 -11.2632,-0.28985 -11.61746,-0.64412 z"
     id="path1933" />
  <path
     style="fill:#7e9ffc;fill-opacity:1;stroke-width:0;paint-order:markers stroke fill"
     d="m 689.63666,351.38886 c -0.27018,-0.70405 -0.37072,-8.00091 -0.22343,-16.21524 l 0.26779,-14.93515 h 11.11101 11.11102 v 15.94189 15.94189 l -10.88759,0.27336 c -8.34412,0.20949 -11.00234,-0.0257 -11.3788,-1.00675 z"
     id="path1935" />
  <path
     style="fill:#7e9ffc;fill-opacity:1;stroke-width:0;paint-order:markers stroke fill"
     d="m 652.922,351.38886 c -0.27017,-0.70405 -0.37072,-8.00091 -0.22343,-16.21524 l 0.26779,-14.93515 h 11.11102 11.11101 v 15.94189 15.94189 l -10.88759,0.27336 c -8.34412,0.20949 -11.00234,-0.0257 -11.3788,-1.00675 z"
     id="path1937" />
  <path
     style="fill:#9b63f8;fill-opacity:1;stroke-width:0;paint-order:markers stroke fill"
     d="m 516.47983,366.41944 -0.22727,-30.14687 -6.03859,-0.28765 -6.0386,-0.28765 v -12.56028 -12.56027 l 5.97632,-0.28604 c 4.66303,-0.22317 6.07153,-0.6478 6.40961,-1.93235 0.39822,-1.51307 0.44235,-1.50947 0.54536,0.0445 0.0919,1.38679 1.0463,1.69081 5.30774,1.69081 3.26021,0 5.6114,0.50093 6.3117,1.34475 0.74237,0.8945 1.02461,5.18082 0.84294,12.80182 l -0.27311,11.45707 -6.0249,0.28729 -6.02489,0.2873 -0.26952,30.14722 -0.26951,30.14723 z"
     id="path1945" />
</svg>
