<?xml version="1.0" encoding="UTF-8" standalone="no"?>
<svg
   xmlns:dc="http://purl.org/dc/elements/1.1/"
   xmlns:cc="http://creativecommons.org/ns#"
   xmlns:rdf="http://www.w3.org/1999/02/22-rdf-syntax-ns#"
   xmlns:svg="http://www.w3.org/2000/svg"
   xmlns="http://www.w3.org/2000/svg"
   xmlns:sodipodi="http://sodipodi.sourceforge.net/DTD/sodipodi-0.dtd"
   xmlns:inkscape="http://www.inkscape.org/namespaces/inkscape"
   id="a525f49c-389c-445f-ad2c-d5c197cff10c"
   data-name="Layer 1"
   width="760"
   height="677.41447"
   viewBox="0 0 760 677.41447"
   version="1.1"
   sodipodi:docname="no-mail-2.svg"
   inkscape:version="1.0.1 (3bc2e813f5, 2020-09-07)">
  <metadata
     id="metadata65">
    <rdf:RDF>
      <cc:Work
         rdf:about="">
        <dc:format>image/svg+xml</dc:format>
        <dc:type
           rdf:resource="http://purl.org/dc/dcmitype/StillImage" />
        <dc:title>cup_of_tea</dc:title>
      </cc:Work>
    </rdf:RDF>
  </metadata>
  <defs
     id="defs63" />
  <sodipodi:namedview
     pagecolor="#ffffff"
     bordercolor="#666666"
     borderopacity="1"
     objecttolerance="10"
     gridtolerance="10"
     guidetolerance="10"
     inkscape:pageopacity="0"
     inkscape:pageshadow="2"
     inkscape:window-width="1203"
     inkscape:window-height="777"
     id="namedview61"
     showgrid="false"
     inkscape:zoom="0.87545511"
     inkscape:cx="399.46684"
     inkscape:cy="351.456"
     inkscape:window-x="0"
     inkscape:window-y="1"
     inkscape:window-maximized="0"
     inkscape:current-layer="a525f49c-389c-445f-ad2c-d5c197cff10c" />
  <title
     id="title2">cup_of_tea</title>
  <path
     d="M503.2,592.89274l-87.38,144.21.18,14.65q-9.585.07508-18.99-.31994l4.35-188.33-.12-1.45.16-.28.41-17.8-95.88-139.21L401.7,530.25272l.34,3.76,3.28-142.29-82.82-144.32,83.06,119.33-.57-192.44-.18-63h.84l1.49,63,3.08,129.97,75.47-94.38-75.23,114.39,1.65,127.28,69.46-124.22-69.2,142.93.91,70.77,101.01-173.03L413.59,565.72276l2.05,157.37Z"
     transform="translate(-220 -111.29276)"
     fill="#e6e6e6"
     id="path4" />
  <polygon
     points="682.29 438.71 654.64 493 585.37 629 569.47 629 569.81 614.28 486.28 493 473.93 475.07 487.57 493 569.7 600.96 570.04 604.72 572.62 493 573.32 462.43 490.5 318.11 573.56 437.44 572.69 142.65 572.69 141.67 572.72 142.64 578.22 374.97 653.69 280.59 578.46 394.98 579.73 493 580.11 522.26 596.47 493 649.57 398.04 603.59 493 580.37 540.97 581.28 611.74 650.6 493 682.29 438.71"
     fill="#e6e6e6"
     id="polygon6" />
  <path
     d="M859.79064,738.38466c0,12.57275-116.406,50.32258-260,50.32258s-260-37.74983-260-50.32258,116.406,4.79262,260,4.79262S859.79064,725.81191,859.79064,738.38466Z"
     transform="translate(-220 -111.29276)"
     fill="#3f3d56"
     id="path8" />
  <path
     d="M859.79064,738.38466c0,12.57275-116.406,50.32258-260,50.32258s-260-37.74983-260-50.32258,116.406,4.79262,260,4.79262S859.79064,725.81191,859.79064,738.38466Z"
     transform="translate(-220 -111.29276)"
     opacity="0.2"
     id="path10" />
  <ellipse
     cx="379.79064"
     cy="627.09189"
     rx="260"
     ry="22.76498"
     fill="#3f3d56"
     id="ellipse12" />
  <ellipse
     cx="377.79064"
     cy="629.3707"
     rx="107"
     ry="10"
     opacity="0.2"
     id="ellipse14" />
  <path
     d="M806.17052,510.92322H689.29064v.74024h-279.5v40.50018c0,104.10559,84.39423,188.49982,188.49982,188.49982h.00036a188.40822,188.40822,0,0,0,162.83246-93.5h45.04724a68.12012,68.12012,0,1,0,0-136.24024Zm0,115.24024H771.70306a187.87964,187.87964,0,0,0,15.08758-73.99982V531.92322h19.37988a47.12012,47.12012,0,1,1,0,94.24024Z"
     transform="translate(-220 -111.29276)"
     fill="#3f3d56"
     id="path16" />
  <path
     d="M427.29064,529.16346v23c0,94.29,76.71045,171,171,171,94.29,0,171-76.71,171-171v-23Z"
     transform="translate(-220 -111.29276)"
     fill="#6c63ff"
     id="path18" />
  <path
     d="M553.57921,691.83153l-39.14805-40.3463a21.39132,21.39132,0,0,1,.45594-30.24845l59.20968-57.4512a15.07125,15.07125,0,0,1,4.90293-3.179l12.861-5.139a15.07129,15.07129,0,0,1,16.40865,3.50019l40.88125,42.13255a15.07127,15.07127,0,0,1,3.20945,16.01046l-4.32624,11.002a15.07137,15.07137,0,0,1-3.5307,5.30112l-60.67547,58.87347A21.39132,21.39132,0,0,1,553.57921,691.83153Z"
     transform="translate(-220 -111.29276)"
     fill="#e6e6e6"
     id="path20" />
  <rect
     x="608.31314"
     y="583.78372"
     width="27.31034"
     height="4.09655"
     transform="translate(389.29081 -379.79266) rotate(45.86357)"
     fill="#3f3d56"
     id="rect22" />
  <path
     d="M623.82448,586.865c3.46216-8.21239,13.77753-9.98185,21.44955-11.6099,8.15615-1.73078,17.44616-4.7423,20.83431-13.22447a11.24,11.24,0,0,0-1.09541-10.72608c-1.99388-2.8597-5.35065-5.18676-8.98028-4.86174-7.59538.68014-8.94833,9.65118-6.04668,15.31227,3.91673,7.64149,13.97531,8.30731,21.50242,8.49584,7.27156.18213,15.07464-.09679,21.71965-3.38207a17.83785,17.83785,0,0,0,10.01438-16.83762c-.23351-7.33736-3.47133-14.18258-5.40419-21.1553-1.85768-6.70151-2.44211-14.1325,2.50377-19.706,4.79229-5.40042,12.34629-7.53307,19.23393-8.62253,1.76841-.27972,3.54847-.47027,5.33275-.61378,1.9113-.15373,1.9278-3.15506,0-3-12.7701,1.02712-29.50561,5.42681-31.33993,20.50708-.83842,6.8928,1.76634,13.6938,3.8677,20.1291,1.95314,5.98135,4.23823,12.87115,1.73914,19.0407-2.62356,6.47687-9.41624,9.11211-15.85132,10.10037a63.179,63.179,0,0,1-10.47233.567A48.15531,48.15531,0,0,1,660.769,566.0658c-3.38717-.929-6.65267-2.70782-8.25867-5.95792-1.18017-2.38832-1.55733-5.61035-.23424-8.02242a5.19048,5.19048,0,0,1,7.32576-1.83049,8.5832,8.5832,0,0,1,4.36377,8.27192c-1.09688,8.49836-10.81291,11.91132-17.92513,13.49648-7.83449,1.74613-16.67391,3.02577-22.26986,9.437a16.80327,16.80327,0,0,0-2.839,4.60711,1.51008,1.51008,0,0,0,1.04766,1.84518,1.5372,1.5372,0,0,0,1.84518-1.04766Z"
     transform="translate(-220 -111.29276)"
     fill="#3f3d56"
     id="path24" />
  <circle
     cx="282.79064"
     cy="452.3707"
     r="11"
     fill="#e6e6e6"
     id="circle26" />
  <circle
     cx="484.79064"
     cy="493.3707"
     r="11"
     fill="#e6e6e6"
     id="circle28" />
  <circle
     cx="429.79064"
     cy="551.3707"
     r="8"
     fill="#e6e6e6"
     id="circle30" />
  <path
     d="M364.60985,734.89808c32.6679,7.28769,68.72037,1.90328,68.72037,1.90328s-16.91266-17.20008-49.58055-24.48776-68.72037-1.90329-68.72037-1.90329S331.942,727.61039,364.60985,734.89808Z"
     transform="translate(-220 -111.29276)"
     fill="#e6e6e6"
     id="path32" />
  <path
     d="M367.83212,747.1873c35.56617,1.02625,65.74587-10.43588,65.74587-10.43588a173.12291,173.12291,0,0,0-63.05059-14.15228c-35.56617-1.02625-65.74588,10.43588-65.74588,10.43588A173.123,173.123,0,0,0,367.83212,747.1873Z"
     transform="translate(-220 -111.29276)"
     fill="#6c63ff"
     id="path34" />
  <path
     d="M370.35844,722.64051c25.40839,12.8098,62.82729,14.41132,62.82729,14.41132s-3.77625-19.16725-29.18465-31.977-62.82729-14.41132-62.82729-14.41132S344.95,709.83072,370.35844,722.64051Z"
     transform="translate(-220 -111.29276)"
     fill="#6c63ff"
     id="path36" />
  <polygon
     points="760 63 760 0 63 0 0 0 0 63 0 300 0 363 0 624 63 624 63 363 760 363 760 300 63 300 63 63 760 63"
     fill="#e6e6e6"
     id="polygon38" />
  <rect
     x="697"
     y="5"
     width="63"
     height="618"
     fill="#e6e6e6"
     id="rect40" />
  <path
     d="M426.79064,529.66346v23c0,94.29,76.71045,171,171,171,94.29,0,171-76.71,171-171v-23Z"
     transform="translate(-220 -111.29276)"
     fill="#6c63ff"
     opacity="0.3"
     id="path42" />
  <path
     d="M340.133,572.30733c-5.80748,9.01245-12.27029,9.30079-17.741,5.77553q-.19061-.12283-.37607-.24961-.37394-.255-.72573-.5269c-4.6654-3.604-6.37025-9.38409-.96931-17.76564,5.5893-8.67387,21.82-13.70656,23.02977-14.07243l.00168,0,.06935-.02079S345.94,563.29562,340.133,572.30733Z"
     transform="translate(-220 -111.29276)"
     fill="#e6e6e6"
     id="path44" />
  <path
     d="M743.133,341.13182c-5.80748,9.01245-12.27029,9.30079-17.741,5.77553q-.19061-.12283-.37607-.24962-.37393-.255-.72573-.52689c-4.6654-3.604-6.37025-9.38409-.96931-17.76565,5.5893-8.67387,21.82-13.70656,23.02977-14.07243l.00168,0,.06935-.0208S748.94,332.1201,743.133,341.13182Z"
     transform="translate(-220 -111.29276)"
     fill="#e6e6e6"
     id="path46" />
  <path
     d="M513.16781,274.24629c7.26272,7.887,5.91683,14.21463,1.12929,18.62325q-.16682.15362-.33616.30123-.3408.29781-.69244.56994c-4.66124,3.60936-10.68432,3.80612-17.43863-3.52872-6.98987-7.59065-7.77994-24.5653-7.82987-25.82822l.00047-.00162-.0027-.07234S505.90569,266.36,513.16781,274.24629Z"
     transform="translate(-220 -111.29276)"
     fill="#e6e6e6"
     id="path48" />
  <path
     d="M751.17595,528.04011l-17.22932,8.69105a7.09841,7.09841,0,0,1-9.63006-2.78717l-11.85612-23.50383a4.51619,4.51619,0,0,1-.47664-1.80825l-.22625-4.4635a5.19025,5.19025,0,0,1,2.92976-4.81539l17.99211-9.07583a5.20813,5.20813,0,0,1,5.47774.39819l3.04384,2.31229a4.52456,4.52456,0,0,1,1.30713,1.56551l12.14963,24.0857A7.0984,7.0984,0,0,1,751.17595,528.04011Z"
     transform="translate(-220 -111.29276)"
     fill="#e6e6e6"
     id="path50" />
  <rect
     x="720.10807"
     y="496.77269"
     width="9.37458"
     height="1.30715"
     transform="translate(-366.35925 268.44389) rotate(-26.76791)"
     fill="#3f3d56"
     id="rect52" />
  <rect
     x="719.13281"
     y="503.29343"
     width="20.74828"
     height="5.99983"
     transform="translate(-369.2757 267.50787) rotate(-26.50666)"
     fill="#6c63ff"
     id="rect54" />
  <rect
     x="723.13281"
     y="510.29343"
     width="20.74828"
     height="5.99983"
     transform="translate(-371.97934 270.0289) rotate(-26.50666)"
     fill="#6c63ff"
     id="rect56" />
  <rect
     x="727.13281"
     y="518.29343"
     width="20.74828"
     height="5.99983"
     transform="translate(-375.12929 272.65504) rotate(-26.50666)"
     fill="#6c63ff"
     id="rect58" />
  <path
     style="fill:#7e9ffc;fill-opacity:1;stroke-width:0;paint-order:markers stroke fill"
     d="m 361.72379,610.52612 c -37.18272,-4.18472 -69.80171,-18.71413 -97.94733,-43.6285 -19.95424,-17.66338 -38.22884,-45.62652 -47.08614,-72.04952 -5.96181,-17.78518 -7.61522,-28.38957 -8.2724,-53.05637 l -0.61639,-23.13558 133.50315,0.29032 133.50315,0.29032 2.68241,9.5026 c 3.16357,11.20715 2.6986,15.78176 -2.0909,20.57125 -4.08468,4.08469 -10.92555,5.90743 -22.1709,5.90743 h -8.57401 l 1.71137,-4.09587 c 3.10878,-7.44039 -2.36011,-16.46486 -9.97783,-16.46486 -9.0357,0 -10.97485,14.09426 -2.84488,20.6775 2.32722,1.88447 2.24767,1.96314 -3.80183,3.75965 -3.39832,1.00919 -6.98502,1.8471 -7.97041,1.86201 -0.98541,0.0149 -4.75503,1.24574 -8.37694,2.73517 l -6.58529,2.70805 -9.40639,-10.07986 c -14.3803,-15.40989 -17.90347,-16.3852 -33.65912,-9.31772 -9.06001,4.06402 -10.55721,5.34365 -41.00982,35.05029 -18.53581,18.08176 -32.24315,32.35598 -33.14599,34.51677 -2.15362,5.15435 -1.87561,12.64931 0.66902,18.03615 1.27176,2.69226 11.46653,14.05313 24.81913,27.65799 19.96772,20.34495 23.26205,23.24144 27.71979,24.37214 6.88594,1.74662 13.87238,0.48402 19.11984,-3.45535 2.40777,-1.80757 18.34041,-17.07449 35.40588,-33.92648 l 31.0281,-30.63998 3.12249,-8.89439 c 4.38563,-12.49247 3.49643,-14.98595 -10.4808,-29.39016 l -10.79595,-11.12576 4.62975,-1.85246 c 2.54637,-1.01885 5.51889,-1.86573 6.6056,-1.88195 1.08672,-0.0162 5.57397,-1.33332 9.97169,-2.92689 6.6415,-2.40663 10.31756,-2.94103 21.70299,-3.15504 15.5655,-0.29258 22.46852,-2.59436 27.0418,-9.01693 4.2924,-6.02811 3.94992,-17.27988 -0.91155,-29.94868 -0.57866,-1.50794 0.95156,-1.75575 10.84176,-1.75575 h 11.51551 l 1.70047,3.28836 c 3.09974,5.99421 6.97554,6.14892 17.77666,0.70956 7.24628,-3.64917 8.80082,-3.99792 17.8204,-3.99792 h 9.88161 l -0.6163,23.13082 c -0.65708,24.66168 -2.31082,35.26744 -8.27229,53.05162 -19.79278,59.04553 -72.47098,104.05511 -133.41272,113.99121 -13.46457,2.1953 -33.51304,2.95106 -44.74639,1.68681 z m 73.23151,-52.89473 c 6.03712,-5.19291 2.91439,-14.45906 -4.87277,-14.45906 -9.61215,0 -11.74381,12.99037 -2.67861,16.32357 3.12975,1.1508 4.41474,0.83352 7.55138,-1.86451 z m 57.97298,-56.30743 c 3.27782,-3.27782 4.1064,-9.94219 1.77721,-14.29432 -1.65956,-3.10092 -8.51093,-5.83859 -12.44783,-4.9739 -8.53315,1.87419 -11.8655,13.95047 -5.38718,19.52289 4.59195,3.94982 11.97033,3.8328 16.0578,-0.25467 z M 287.42144,462.73948 c 2.12811,-0.88918 4.42468,-2.65445 5.1035,-3.92282 1.79012,-3.34487 1.51279,-10.68837 -0.51287,-13.5804 -2.55454,-3.64712 -9.05545,-5.15736 -13.75239,-3.19486 -3.68523,1.53979 -7.3458,6.68297 -7.3458,10.32102 0,3.57063 3.62834,8.76277 7.21307,10.32188 4.59037,1.99649 4.64749,1.99682 9.29449,0.0552 z"
     id="path896" />
  <path
     style="fill:#7e9ffc;fill-opacity:1;stroke-width:0;paint-order:markers stroke fill"
     d="m 435.54398,450.96898 c -5.3558,-5.35581 -4.41331,-11.74259 1.73285,-11.74259 2.94179,0 6.11877,3.92131 6.11877,7.55233 0,1.36122 -0.96314,3.66437 -2.1403,5.11811 l -2.14031,2.64316 z"
     id="path898" />
  <path
     style="fill:#ee7da8;fill-opacity:1;stroke-width:0;paint-order:markers stroke fill"
     d="m 135.1158,634.39074 c -5.26791,-0.55073 -12.97818,-1.77261 -17.13394,-2.7153 -10.81724,-2.45375 -29.830062,-8.62495 -29.830062,-9.68227 0,-2.54372 31.844432,-8.86384 49.839842,-9.89163 l 13.00229,-0.74261 -6.67557,-4.36182 c -3.67156,-2.399 -9.06437,-6.91564 -11.98401,-10.03698 -5.04229,-5.39061 -10.96859,-15.41996 -9.80132,-16.58722 0.77574,-0.77574 24.68931,2.47072 33.85194,4.59568 26.61306,6.17198 45.5126,18.18357 53.37583,33.92296 l 2.97384,5.95258 -3.1793,1.31031 c -5.7945,2.38813 -29.27005,7.13509 -41.28059,8.34729 -13.34441,1.34682 -19.40867,1.32653 -33.15895,-0.11098 z"
     id="path906" />
</svg>
