<?xml version="1.0" encoding="UTF-8" standalone="no"?>
<svg
   xmlns:dc="http://purl.org/dc/elements/1.1/"
   xmlns:cc="http://creativecommons.org/ns#"
   xmlns:rdf="http://www.w3.org/1999/02/22-rdf-syntax-ns#"
   xmlns:svg="http://www.w3.org/2000/svg"
   xmlns="http://www.w3.org/2000/svg"
   xmlns:sodipodi="http://sodipodi.sourceforge.net/DTD/sodipodi-0.dtd"
   xmlns:inkscape="http://www.inkscape.org/namespaces/inkscape"
   viewBox="0 0 73.95 67.39"
   version="1.1"
   id="svg61"
   sodipodi:docname="slide6.svg"
   inkscape:version="1.0.1 (3bc2e813f5, 2020-09-07)">
  <metadata
     id="metadata65">
    <rdf:RDF>
      <cc:Work
         rdf:about="">
        <dc:format>image/svg+xml</dc:format>
        <dc:type
           rdf:resource="http://purl.org/dc/dcmitype/StillImage" />
      </cc:Work>
    </rdf:RDF>
  </metadata>
  <sodipodi:namedview
     pagecolor="#ffffff"
     bordercolor="#666666"
     borderopacity="1"
     objecttolerance="10"
     gridtolerance="10"
     guidetolerance="10"
     inkscape:pageopacity="0"
     inkscape:pageshadow="2"
     inkscape:window-width="1593"
     inkscape:window-height="871"
     id="namedview63"
     showgrid="false"
     inkscape:zoom="2.8265162"
     inkscape:cx="30.602819"
     inkscape:cy="48.768529"
     inkscape:window-x="231"
     inkscape:window-y="69"
     inkscape:window-maximized="0"
     inkscape:current-layer="Layer_1-2"
     inkscape:document-rotation="0" />
  <defs
     id="defs9">
    <style
       id="style2">
			.cls-1{fill:#fff;}.cls-2{fill:#cec1bc;}.cls-3,.cls-6,.cls-8{fill:#389bf3;}.cls-3,.cls-4{opacity:0.8;}.cls-10,.cls-4,.cls-7{fill:#ff9d23;}.cls-5,.cls-9{fill:#aa7dff;}.cls-10,.cls-8,.cls-9{opacity:0.5;}.cls-11,.cls-12,.cls-14,.cls-15,.cls-16{fill:none;stroke-miterlimit:10;}.cls-11,.cls-12{stroke:#732e54;stroke-width:2px;}.cls-12,.cls-14,.cls-15,.cls-16{stroke-linecap:round;}.cls-13{fill:url(#lukaszadam_gradient);}.cls-14,.cls-15,.cls-16{stroke:#fff;}.cls-15{opacity:0.3;}.cls-16{opacity:0.7;}
		</style>
    <linearGradient
       id="lukaszadam_gradient"
       x1="19"
       y1="42.18"
       x2="74.91"
       y2="42.18"
       gradientUnits="userSpaceOnUse"
       gradientTransform="matrix(0.70292696,0,0,0.68750122,2.8760294,11.762617)">
      <stop
         offset="0.04"
         stop-color="#f27b40"
         id="stop4" />
      <stop
         offset="1"
         stop-color="#ec697d"
         id="stop6" />
    </linearGradient>
  </defs>
  <title
     id="title11">
		Asset 24
	</title>
  <g
     id="Layer_2"
     data-name="Layer 2">
    <g
       id="Layer_1-2"
       data-name="Layer 1">
      <path
         class="cls-1"
         d="m 35.843303,30.263276 h 29.909543 a 2.3126297,2.261879 0 0 1 2.312629,2.261879 v 23.595042 a 2.3126297,2.261879 0 0 1 -2.312629,2.261878 H 35.843303 A 2.3688638,2.3168791 0 0 1 33.474439,56.065196 V 32.580155 a 2.3688638,2.3168791 0 0 1 2.368864,-2.316879 z"
         id="path13"
         style="stroke-width:0.695171" />
      <path
         class="cls-2"
         d="m 67.847568,32.023279 v 23.931918 c 0,1.161877 0.583429,2.062503 -0.597488,2.062503 H 35.456693 a 2.1861028,2.1381288 0 0 1 -2.150956,-1.691253 1.7502881,1.7118781 0 0 0 0.499078,0.12375 h 30.22586 a 2.1087809,2.0625036 0 0 0 2.108781,-2.096878 V 30.387026 a 1.9752247,1.9318784 0 0 0 0,-0.405626 2.1087809,2.0625036 0 0 1 1.708112,2.041879 z"
         id="path15"
         style="stroke-width:0.695171" />
      <path
         class="cls-3"
         d="m 43.990227,20.638258 -15.351925,9.755643 a 2.0199001,1.9755734 0 1 1 -2.200161,-3.313756 l 15.344895,-9.755643 a 2.0244296,1.9800035 0 0 1 2.207191,3.313756 z"
         id="path17"
         style="stroke-width:0.695171" />
      <path
         class="cls-4"
         d="m 23.471789,33.680157 -10.262733,6.524387 a 2.0244296,1.9800035 0 0 1 -2.207191,-3.313756 l 10.269763,-6.524387 a 2.0199001,1.9755734 0 0 1 2.200161,3.313756 z"
         id="path19"
         style="stroke-width:0.695171" />
      <path
         class="cls-5"
         d="m 36.778196,18.342004 -15.344895,9.762517 a 2.0247622,1.9803287 0 0 1 -2.207191,-3.32063 l 15.351925,-9.755643 a 2.0199001,1.9755734 0 1 1 2.200161,3.313756 z"
         id="path21"
         style="stroke-width:0.695171" />
      <path
         class="cls-6"
         d="M 16.266788,31.383903 5.997025,37.887665 A 2.0244296,1.9800035 0 0 1 3.7968636,34.567034 L 14.059597,28.042647 a 2.0244296,1.9800035 0 0 1 2.207191,3.313756 z"
         id="path23"
         style="stroke-width:0.695171" />
      <path
         class="cls-7"
         d="m 41.410485,15.399499 -0.09138,0.055 a 2.0244296,1.9800035 0 1 1 -2.207191,-3.313756 l 0.09138,-0.055 a 2.0244296,1.9800035 0 0 1 2.20719,3.313756 z"
         id="path25"
         style="stroke-width:0.695171" />
      <path
         class="cls-8"
         d="m 43.209978,28.015147 -15.351925,9.755642 a 2.0247623,1.9803288 0 1 1 -2.20719,-3.320631 l 15.351925,-9.762517 a 2.0247623,1.9803288 0 0 1 2.20719,3.320631 z"
         id="path27"
         style="stroke-width:0.695171" />
      <path
         class="cls-9"
         d="m 22.69154,41.057045 -10.262734,6.524386 a 2.0244296,1.9800035 0 1 1 -2.20719,-3.313756 l 10.269762,-6.524386 a 2.0199003,1.9755736 0 0 1 2.200162,3.313756 z"
         id="path29"
         style="stroke-width:0.695171" />
      <path
         class="cls-10"
         d="m 47.863354,25.065767 -0.09138,0.06188 a 2.0244296,1.9800035 0 1 1 -2.207188,-3.313758 l 0.09841,-0.06188 a 2.0199003,1.9755736 0 1 1 2.200162,3.313756 z"
         id="path31"
         style="stroke-width:0.695171" />
      <path
         class="cls-11"
         d="m 34.571006,30.325151 h 31.498157 a 2.2634248,2.2137539 0 0 1 2.263424,2.213754 v 23.711917 a 2.2634248,2.2137539 0 0 1 -2.263424,2.213754 H 34.571006 A 0.82945381,0.81125144 0 0 1 33.741551,57.653325 V 31.157027 a 0.82945381,0.81125144 0 0 1 0.829455,-0.831876 z"
         id="path33" />
      <line
         class="cls-12"
         x1="59.16642"
         y1="35.680786"
         x2="68.325562"
         y2="35.680786"
         id="line35" />
      <line
         class="cls-12"
         x1="33.74155"
         y1="35.680786"
         x2="44.960262"
         y2="35.680786"
         id="line37" />
      <path
         class="cls-13"
         d="m 53.170453,36.794537 h -1.560498 a 2.396981,2.3443791 0 0 1 -2.340747,-2.344379 2.2563955,2.2068789 0 0 1 0.766191,-1.656877 l 1.005185,-0.962502 a 2.5024199,2.4475043 0 0 0 0,-3.492507 l -2.284512,-2.213753 a 2.6008297,2.5437545 0 0 0 -3.584928,0 l -0.96301,0.941876 a 2.3266882,2.2756291 0 0 1 -1.743258,0.770001 2.396981,2.3443791 0 0 1 -2.41104,-2.275628 V 24.02764 A 2.5586541,2.5025045 0 0 0 37.544387,21.511385 H 34.43745 a 2.5516248,2.4956294 0 0 0 -2.502421,2.516255 v 1.526253 a 2.3899517,2.3375042 0 0 1 -2.40401,2.268753 2.2774833,2.227504 0 0 1 -1.701082,-0.742501 l -0.991128,-0.955626 a 2.5305371,2.4750044 0 0 0 -1.799492,-0.687502 2.5656834,2.5093795 0 0 0 -1.785435,0.687502 l -2.305601,2.200003 a 2.5305371,2.4750044 0 0 0 0,3.492507 l 0.963011,0.935002 a 2.3407468,2.2893791 0 0 1 0.794306,1.698127 2.3899517,2.3375042 0 0 1 -2.333717,2.344379 h -1.560498 a 2.5445956,2.4887544 0 0 0 -2.579742,2.46813 v 3.04563 a 2.5445956,2.4887544 0 0 0 2.579742,2.426879 h 1.560498 a 2.4040102,2.3512542 0 0 1 2.333717,2.351254 2.3126297,2.261879 0 0 1 -0.794306,1.691254 l -0.963011,0.935002 a 2.5235078,2.4681294 0 0 0 0,3.48563 l 2.31263,2.19313 a 2.5094492,2.4543794 0 0 0 1.792464,0.6875 2.6008297,2.5437545 0 0 0 1.792464,-0.6875 l 0.991127,-0.962502 a 2.2704541,2.220629 0 0 1 1.672966,-0.728752 2.396981,2.3443791 0 0 1 2.411039,2.275629 v 1.519378 a 2.5516248,2.4956294 0 0 0 2.509449,2.516255 h 3.113967 a 2.5516248,2.4956294 0 0 0 2.50242,-2.516255 v -1.526253 a 2.3829224,2.3306292 0 0 1 4.147269,-1.505627 l 0.963009,0.941877 a 2.6008297,2.5437545 0 0 0 3.584928,0 l 2.284513,-2.227505 a 2.5305371,2.4750044 0 0 0 0,-3.492505 L 50.02134,48.715809 a 2.2353077,2.1862539 0 0 1 -0.752132,-1.650004 2.3899517,2.3375042 0 0 1 2.333718,-2.344379 h 1.560498 a 2.3829224,2.3306292 0 0 0 2.382922,-2.433754 v -3.025005 a 2.3548053,2.3031291 0 0 0 -2.375893,-2.46813 z M 35.990918,48.770809 a 8.1961283,8.0162642 0 1 1 8.189099,-8.016264 8.1961283,8.0162642 0 0 1 -8.189099,8.016264 z"
         id="path39"
         style="fill:url(#lukaszadam_gradient);stroke-width:0.695171" />
      <path
         class="cls-1"
         d="m 43.983198,40.128918 a 8.1961283,8.0162642 0 0 1 -8.034456,8.016265 8.1961283,8.0162642 0 1 1 8.034456,-8.016265 z"
         id="path41"
         style="stroke-width:0.695171" />
      <path
         class="cls-1"
         d="m 43.85667,40.96767 a 7.5213184,7.3562631 0 0 1 -0.06327,0.955626 8.0203966,7.844389 0 0 0 -15.942384,0 7.5213184,7.3562631 0 0 1 -0.06327,-0.955626 8.0344551,7.858139 0 1 1 16.06891,0 z"
         id="path43"
         style="stroke-width:0.695171" />
      <path
         class="cls-2"
         d="m 27.843995,39.695793 a 7.5213184,7.3562631 0 0 1 0.06327,-0.955627 8.0203966,7.844389 0 0 0 15.942384,0 7.5213184,7.3562631 0 0 1 0.06327,0.955627 8.0344551,7.858139 0 1 1 -16.06891,0 z"
         id="path45"
         style="stroke-width:0.695171" />
      <path
         class="cls-11"
         d="m 53.170453,36.217036 h -1.560498 a 2.3899517,2.3375042 0 0 1 -2.340747,-2.344379 2.2282784,2.1793789 0 0 1 0.766191,-1.650002 l 1.005185,-0.962502 a 2.5235078,2.4681294 0 0 0 0,-3.499382 l -2.284512,-2.213753 a 2.6008297,2.5437545 0 0 0 -3.584928,0 l -0.96301,0.941876 a 2.3126297,2.261879 0 0 1 -1.743258,0.770001 2.396981,2.3443791 0 0 1 -2.41104,-2.275629 V 23.450138 A 2.5516248,2.4956294 0 0 0 37.544387,20.94076 H 34.43745 a 2.5375663,2.4818794 0 0 0 -2.495391,2.509378 v 1.526253 a 2.396981,2.3443791 0 0 1 -2.41104,2.275629 2.3126297,2.261879 0 0 1 -1.701082,-0.742501 l -0.991128,-0.962501 a 2.5094492,2.4543794 0 0 0 -1.792463,-0.687502 2.5727127,2.5162545 0 0 0 -1.792464,0.687502 l -2.305601,2.206878 a 2.5235078,2.4681294 0 0 0 0,3.485632 l 0.963011,0.941876 a 2.3407468,2.2893791 0 0 1 0.794306,1.691253 2.3829224,2.3306292 0 0 1 -2.333717,2.344379 h -1.560498 a 2.5445956,2.4887544 0 0 0 -2.579742,2.44063 v 3.04563 a 2.5516248,2.4956294 0 0 0 2.579742,2.433755 h 1.560498 a 2.3899517,2.3375042 0 0 1 2.333717,2.344379 2.3266882,2.2756291 0 0 1 -0.794306,1.718753 l -0.963011,0.935001 a 2.5235078,2.4681294 0 0 0 0,3.485632 l 2.31263,2.200004 a 2.5305371,2.4750044 0 0 0 1.792464,0.6875 2.6008297,2.5437545 0 0 0 1.792464,-0.6875 l 0.991127,-0.962502 a 2.2634248,2.2137539 0 0 1 1.701082,-0.742501 2.396981,2.3443791 0 0 1 2.41104,2.275629 v 1.519377 a 2.5516248,2.4956294 0 0 0 2.509449,2.516255 h 3.113967 a 2.5445956,2.4887544 0 0 0 2.49539,-2.516255 v -1.519377 a 2.3829224,2.3306292 0 0 1 4.154299,-1.505628 l 0.96301,0.941877 a 2.6008297,2.5437545 0 0 0 3.584927,0 l 2.256396,-2.227504 a 2.5305371,2.4750044 0 0 0 0,-3.492507 L 50.02134,48.145183 a 2.2634248,2.2137539 0 0 1 -0.752132,-1.656878 2.3899517,2.3375042 0 0 1 2.31966,-2.344379 h 1.560498 a 2.3829224,2.3306292 0 0 0 2.382921,-2.433755 v -3.052505 a 2.3548053,2.3031291 0 0 0 -2.361834,-2.44063 z"
         id="path47" />
      <path
         class="cls-12"
         d="m 44.144655,40.592452 a 7.9711917,7.7962639 0 1 1 -8.034456,-8.016264 8.1961283,8.0162642 0 0 1 8.034456,8.016264 z"
         id="path49" />
      <path
         class="cls-14"
         d="m 45.754574,44.522051 a 10.803987,10.566894 0 0 1 -0.702927,1.478128"
         id="path51"
         style="stroke-width:0.695171" />
      <path
         class="cls-15"
         d="m 46.759759,39.950168 a 11.317124,11.06877 0 0 1 -0.224937,1.725628"
         id="path53"
         style="stroke-width:0.695171" />
      <path
         class="cls-14"
         d="m 41.733832,30.180776 a 10.19947,9.9756429 0 0 1 5.089191,6.613761"
         id="path55"
         style="stroke-width:0.695171" />
      <path
         class="cls-16"
         d="m 30.669761,31.012652 a 10.269763,10.044393 0 0 1 7.914957,-1.911254"
         id="path57"
         style="stroke-width:0.695171" />
    </g>
  </g>
</svg>
