<?xml version="1.0" encoding="UTF-8" standalone="no"?>
<svg
   xmlns:dc="http://purl.org/dc/elements/1.1/"
   xmlns:cc="http://creativecommons.org/ns#"
   xmlns:rdf="http://www.w3.org/1999/02/22-rdf-syntax-ns#"
   xmlns:svg="http://www.w3.org/2000/svg"
   xmlns="http://www.w3.org/2000/svg"
   xmlns:sodipodi="http://sodipodi.sourceforge.net/DTD/sodipodi-0.dtd"
   xmlns:inkscape="http://www.inkscape.org/namespaces/inkscape"
   viewBox="0 0 73.95 67.39"
   version="1.1"
   id="svg57"
   sodipodi:docname="slide1.svg"
   inkscape:version="1.0.1 (3bc2e813f5, 2020-09-07)">
  <metadata
     id="metadata61">
    <rdf:RDF>
      <cc:Work
         rdf:about="">
        <dc:format>image/svg+xml</dc:format>
        <dc:type
           rdf:resource="http://purl.org/dc/dcmitype/StillImage" />
      </cc:Work>
    </rdf:RDF>
  </metadata>
  <sodipodi:namedview
     pagecolor="#ffffff"
     bordercolor="#666666"
     borderopacity="1"
     objecttolerance="10"
     gridtolerance="10"
     guidetolerance="10"
     inkscape:pageopacity="0"
     inkscape:pageshadow="2"
     inkscape:window-width="1442"
     inkscape:window-height="974"
     id="namedview59"
     showgrid="false"
     inkscape:zoom="2.914072"
     inkscape:cx="-14.847335"
     inkscape:cy="7.6839033"
     inkscape:window-x="0"
     inkscape:window-y="0"
     inkscape:window-maximized="0"
     inkscape:current-layer="svg57" />
  <defs
     id="defs9">
    <style
       id="style2">
			.cls-1,.cls-4,.cls-6{fill:#389bf3;}.cls-1,.cls-2{opacity:0.8;}.cls-2,.cls-5,.cls-8{fill:#ff9d23;}.cls-3,.cls-7{fill:#aa7dff;}.cls-11,.cls-6,.cls-7,.cls-8{opacity:0.5;}.cls-9{fill:#fff;}.cls-10,.cls-11,.cls-12,.cls-13,.cls-14{fill:none;stroke:#732e54;stroke-miterlimit:10;}.cls-12{opacity:0.2;}.cls-13,.cls-14{stroke-width:2px;}.cls-14{stroke-linecap:round;}.cls-15{fill:url(#lukaszadam_gradient);}
		</style>
    <linearGradient
       id="lukaszadam_gradient"
       x1="193.75"
       y1="1.32"
       x2="200.18"
       y2="1.32"
       gradientTransform="rotate(-149.19,121.34658,38.984511)"
       gradientUnits="userSpaceOnUse">
      <stop
         offset="0.04"
         stop-color="#f27b40"
         id="stop4" />
      <stop
         offset="1"
         stop-color="#ec697d"
         id="stop6" />
    </linearGradient>
  </defs>
  <title
     id="title11">
		Asset 19
	</title>
  <g
     id="Layer_2"
     data-name="Layer 2"
     transform="matrix(0.80956384,0,0,0.81127789,13.748743,5.8442478)">
    <g
       id="Layer_1-2"
       data-name="Layer 1">
      <path
         class="cls-1"
         d="m 67.71,23.28 -20.07,13 a 2.6419358,2.6419358 0 0 1 -2.88,-4.43 l 20.07,-13 a 2.6419358,2.6419358 0 1 1 2.88,4.43 z"
         id="path13" />
      <path
         class="cls-2"
         d="M 40.89,40.72 27.47,49.44 A 2.6461292,2.6461292 0 0 1 24.59,45 L 38,36.29 a 2.6419358,2.6419358 0 1 1 2.88,4.43 z"
         id="path15" />
      <path
         class="cls-3"
         d="m 58.29,20.22 -20.07,13 a 2.6419358,2.6419358 0 1 1 -2.88,-4.43 l 20.07,-13 a 2.65,2.65 0 0 1 2.88,4.44 z"
         id="path17" />
      <path
         class="cls-4"
         d="m 31.47,37.65 -13.42,8.73 a 2.65,2.65 0 1 1 -2.88,-4.44 l 13.42,-8.72 a 2.6419358,2.6419358 0 0 1 2.88,4.43 z"
         id="path19" />
      <path
         class="cls-5"
         d="m 64.34,16.28 -0.12,0.08 a 2.6419358,2.6419358 0 1 1 -2.88,-4.43 l 0.12,-0.08 a 2.6419358,2.6419358 0 1 1 2.88,4.43 z"
         id="path21" />
      <path
         class="cls-6"
         d="m 66.69,33.14 -20.07,13 a 2.6419358,2.6419358 0 0 1 -2.88,-4.43 l 20.07,-13 a 2.6419358,2.6419358 0 1 1 2.88,4.43 z"
         id="path23" />
      <path
         class="cls-7"
         d="M 39.87,50.58 26.45,59.3 A 2.6419358,2.6419358 0 1 1 23.57,54.87 L 37,46.15 a 2.6419358,2.6419358 0 1 1 2.88,4.43 z"
         id="path25" />
      <path
         class="cls-8"
         d="m 72.74,29.21 -0.12,0.08 a 2.6419358,2.6419358 0 0 1 -2.88,-4.43 l 0.12,-0.08 a 2.6419358,2.6419358 0 1 1 2.88,4.43 z"
         id="path27" />
      <rect
         class="cls-9"
         x="1.49"
         y="0.83999997"
         width="46.439999"
         height="65.389999"
         id="rect29" />
      <line
         class="cls-10"
         x1="42.189999"
         y1="61.240002"
         x2="42.189999"
         y2="47.98"
         id="line31" />
      <line
         class="cls-11"
         x1="42.189999"
         y1="46.080002"
         x2="42.189999"
         y2="41.759998"
         id="line33" />
      <line
         class="cls-12"
         x1="42.189999"
         y1="39.900002"
         x2="42.189999"
         y2="36.580002"
         id="line35" />
      <rect
         class="cls-13"
         x="1"
         y="1"
         width="46.439999"
         height="65.389999"
         rx="3"
         id="rect37" />
      <line
         class="cls-14"
         x1="13.85"
         y1="11.08"
         x2="36.169998"
         y2="11.08"
         id="line39" />
      <line
         class="cls-14"
         x1="13.85"
         y1="16.66"
         x2="21.17"
         y2="16.66"
         id="line41" />
      <line
         class="cls-14"
         x1="13.85"
         y1="27.83"
         x2="21.17"
         y2="27.83"
         id="line43" />
      <line
         class="cls-14"
         x1="13.85"
         y1="22.24"
         x2="34.169998"
         y2="22.24"
         id="line45" />
      <line
         class="cls-14"
         x1="13.58"
         y1="58.82"
         x2="34.610001"
         y2="58.82"
         id="line47" />
      <path
         class="cls-15"
         d="m 51.42,8.6 v 0 A 3.2,3.2 0 0 1 52.54,13 L 29.13,52.25 23.08,56.79 23.61,49 47,9.71 A 3.21,3.21 0 0 1 51.42,8.6 Z"
         id="path49"
         style="fill:url(#lukaszadam_gradient)" />
      <polygon
         class="cls-9"
         points="29.47,51.16 23.48,55.65 24.01,47.82 "
         id="polygon51" />
      <path
         class="cls-13"
         d="m 51.3,8.52 v 0 a 3.22,3.22 0 0 1 1.11,4.41 L 29.52,51.31 22.85,56.65 24,48 46.89,9.63 A 3.22,3.22 0 0 1 51.3,8.52 Z"
         id="path53" />
    </g>
  </g>
</svg>
