<?xml version="1.0" encoding="UTF-8" standalone="no"?>
<svg
   xmlns:dc="http://purl.org/dc/elements/1.1/"
   xmlns:cc="http://creativecommons.org/ns#"
   xmlns:rdf="http://www.w3.org/1999/02/22-rdf-syntax-ns#"
   xmlns:svg="http://www.w3.org/2000/svg"
   xmlns="http://www.w3.org/2000/svg"
   xmlns:sodipodi="http://sodipodi.sourceforge.net/DTD/sodipodi-0.dtd"
   xmlns:inkscape="http://www.inkscape.org/namespaces/inkscape"
   viewBox="0 0 73.95 67.39"
   version="1.1"
   id="svg71"
   sodipodi:docname="slide2.svg"
   inkscape:version="1.0.1 (3bc2e813f5, 2020-09-07)">
  <metadata
     id="metadata75">
    <rdf:RDF>
      <cc:Work
         rdf:about="">
        <dc:format>image/svg+xml</dc:format>
        <dc:type
           rdf:resource="http://purl.org/dc/dcmitype/StillImage" />
      </cc:Work>
    </rdf:RDF>
  </metadata>
  <sodipodi:namedview
     pagecolor="#ffffff"
     bordercolor="#666666"
     borderopacity="1"
     objecttolerance="10"
     gridtolerance="10"
     guidetolerance="10"
     inkscape:pageopacity="0"
     inkscape:pageshadow="2"
     inkscape:window-width="922"
     inkscape:window-height="798"
     id="namedview73"
     showgrid="false"
     inkscape:zoom="2.1005517"
     inkscape:cx="30.075001"
     inkscape:cy="36.049999"
     inkscape:window-x="858"
     inkscape:window-y="105"
     inkscape:window-maximized="0"
     inkscape:current-layer="svg71"
     inkscape:document-rotation="0" />
  <defs
     id="defs9">
    <style
       id="style2">
			.cls-1,.cls-12,.cls-14,.cls-15,.cls-16,.cls-17{fill:none;stroke-miterlimit:10;}.cls-1,.cls-12{stroke:#732e54;}.cls-1,.cls-14,.cls-15,.cls-16,.cls-17{stroke-linecap:round;}.cls-1,.cls-12,.cls-17{stroke-width:2px;}.cls-2,.cls-5,.cls-7{fill:#389bf3;}.cls-2,.cls-3{opacity:0.8;}.cls-3,.cls-6,.cls-9{fill:#ff9d23;}.cls-4,.cls-8{fill:#aa7dff;}.cls-7,.cls-8,.cls-9{opacity:0.5;}.cls-10{fill:#fff;}.cls-11{fill:#cec1bc;}.cls-13{fill:url(#lukaszadam_gradient);}.cls-14,.cls-15,.cls-16,.cls-17{stroke:#fff;}.cls-15{opacity:0.3;}.cls-16{opacity:0.7;}
		</style>
    <linearGradient
       id="lukaszadam_gradient"
       x1="16.8"
       y1="67.33"
       x2="30.4"
       y2="67.33"
       gradientUnits="userSpaceOnUse">
      <stop
         offset="0.04"
         stop-color="#f27b40"
         id="stop4" />
      <stop
         offset="1"
         stop-color="#ec697d"
         id="stop6" />
    </linearGradient>
  </defs>
  <title
     id="title11">
		Asset 23
	</title>
  <g
     id="Layer_2"
     data-name="Layer 2"
     transform="matrix(0.86881798,0,0,0.86158695,15.177959,2.2264271)">
    <g
       id="Layer_1-2"
       data-name="Layer 1">
      <line
         class="cls-1"
         x1="23.959999"
         y1="4.4499998"
         x2="23.959999"
         y2="1"
         id="line13" />
      <line
         class="cls-1"
         x1="10.06"
         y1="4.71"
         x2="12.07"
         y2="7.1999998"
         id="line15" />
      <line
         class="cls-1"
         x1="37.950001"
         y1="4.71"
         x2="35.950001"
         y2="7.1999998"
         id="line17" />
      <path
         class="cls-2"
         d="M 53.92,31.79 33.85,44.84 A 2.64,2.64 0 0 1 31,40.41 L 51,27.36 a 2.6419358,2.6419358 0 1 1 2.88,4.43 z"
         id="path19" />
      <path
         class="cls-3"
         d="M 27.1,49.23 13.68,58 A 2.6419358,2.6419358 0 1 1 10.8,53.57 L 24.22,44.8 a 2.6419358,2.6419358 0 0 1 2.88,4.43 z"
         id="path21" />
      <path
         class="cls-4"
         d="m 44.5,28.73 -20.07,13 A 2.6419358,2.6419358 0 1 1 21.55,37.3 L 41.61,24.29 a 2.65,2.65 0 0 1 2.89,4.44 z"
         id="path23" />
      <path
         class="cls-5"
         d="M 17.67,46.16 4.26,54.89 A 2.65,2.65 0 0 1 1.37,50.45 l 13.42,-8.72 a 2.6419358,2.6419358 0 1 1 2.88,4.43 z"
         id="path25" />
      <path
         class="cls-6"
         d="m 50.55,24.79 -0.12,0.08 a 2.6446644,2.6446644 0 0 1 -2.89,-4.43 l 0.13,-0.08 a 2.6419358,2.6419358 0 0 1 2.88,4.43 z"
         id="path27" />
      <path
         class="cls-7"
         d="M 52.9,41.65 32.83,54.7 A 2.64,2.64 0 0 1 30,50.27 L 50,37.22 a 2.6419358,2.6419358 0 0 1 2.88,4.43 z"
         id="path29" />
      <path
         class="cls-8"
         d="M 26.08,59.09 12.66,67.81 A 2.6419358,2.6419358 0 1 1 9.78,63.38 L 23.2,54.66 a 2.6419358,2.6419358 0 0 1 2.88,4.43 z"
         id="path31" />
      <path
         class="cls-9"
         d="M 59,37.72 58.88,37.8 A 2.6419358,2.6419358 0 1 1 56,33.37 l 0.12,-0.08 A 2.6419358,2.6419358 0 1 1 59,37.72 Z"
         id="path33" />
      <path
         class="cls-10"
         d="m 6.59,37.71 c 1.26,3 3.2,5.66 4.82,8.49 1.62,2.83 3,6 2.81,9.23 h 19 c -0.15,-3.26 1.18,-6.4 2.8,-9.23 1.62,-2.83 3.56,-5.5 4.83,-8.49 C 46.1,25.27 38,9.49 23.73,9.71 9.44,9.49 1.36,25.27 6.59,37.71 Z"
         id="path35" />
      <path
         class="cls-11"
         d="m 23.94,9.56 v 45.72 h 9.51 c -0.15,-3.26 1.18,-6.4 2.8,-9.23 1.62,-2.83 3.57,-5.5 4.83,-8.49 5.23,-12.44 -2.85,-28.22 -17.14,-28 z"
         id="path37" />
      <path
         class="cls-12"
         d="m 6.73,38 c 1.27,3 3.21,5.66 4.83,8.49 a 19.71,19.71 0 0 1 2.76,7.59 1.86,1.86 0 0 0 1.87,1.64 h 15.37 a 1.86,1.86 0 0 0 1.87,-1.64 19.39,19.39 0 0 1 2.76,-7.59 C 37.81,43.66 39.75,41 41,38 46.23,25.56 38.15,9.78 23.86,10 9.59,9.78 1.5,25.56 6.73,38 Z"
         id="path39" />
      <path
         class="cls-13"
         d="m 16.8,63.78 h 13.6 v 0.3 a 6.8,6.8 0 0 1 -6.8,6.8 v 0 a 6.8,6.8 0 0 1 -6.8,-6.8 z"
         id="path41"
         style="fill:url(#lukaszadam_gradient)" />
      <path
         class="cls-12"
         d="m 17,64 h 13.63 v 0.3 a 6.8,6.8 0 0 1 -6.8,6.8 v 0 A 6.8,6.8 0 0 1 17,64.3 Z"
         id="path43" />
      <line
         class="cls-1"
         x1="9.9799995"
         y1="63.970001"
         x2="37.34"
         y2="63.970001"
         id="line45" />
      <line
         class="cls-1"
         x1="14.84"
         y1="60.07"
         x2="31.200001"
         y2="60.07"
         id="line47" />
      <line
         class="cls-1"
         x1="43.259998"
         y1="14.86"
         x2="46.959999"
         y2="12.62"
         id="line49" />
      <line
         class="cls-1"
         x1="4.6999998"
         y1="14.86"
         x2="1"
         y2="12.62"
         id="line51" />
      <line
         class="cls-1"
         x1="23.940001"
         y1="55.279999"
         x2="23.940001"
         y2="47.139999"
         id="line53" />
      <polyline
         class="cls-1"
         points="27.49 42.03 25.73 44.48 23.97 46.93 22.22 44.48 20.46 42.03"
         id="polyline55" />
      <path
         class="cls-14"
         d="m 35.58,36.61 a 13.92,13.92 0 0 1 -1,2.16"
         id="path57" />
      <path
         class="cls-15"
         d="m 37,29.93 a 14,14 0 0 1 -0.32,2.51"
         id="path59" />
      <path
         class="cls-14"
         d="m 29.85,15.76 a 14.5,14.5 0 0 1 7.23,9.62"
         id="path61" />
      <path
         class="cls-16"
         d="m 14.1,16.94 a 14.24,14.24 0 0 1 5.65,-2.61 14.57,14.57 0 0 1 5.61,-0.14"
         id="path63" />
      <path
         class="cls-17"
         d="m 11.09,21.5 a 14.56,14.56 0 0 1 4.36,-4.87"
         id="path65" />
      <path
         class="cls-17"
         d="M 14.51,39.67 A 14.57,14.57 0 0 1 10,23.91"
         id="path67" />
    </g>
  </g>
</svg>
