<?xml version="1.0" encoding="UTF-8" standalone="no"?>
<svg
   xmlns:dc="http://purl.org/dc/elements/1.1/"
   xmlns:cc="http://creativecommons.org/ns#"
   xmlns:rdf="http://www.w3.org/1999/02/22-rdf-syntax-ns#"
   xmlns:svg="http://www.w3.org/2000/svg"
   xmlns="http://www.w3.org/2000/svg"
   xmlns:sodipodi="http://sodipodi.sourceforge.net/DTD/sodipodi-0.dtd"
   xmlns:inkscape="http://www.inkscape.org/namespaces/inkscape"
   viewBox="0 0 73.95 67.39"
   version="1.1"
   id="svg342"
   sodipodi:docname="slide4.svg"
   inkscape:version="1.0.1 (3bc2e813f5, 2020-09-07)">
  <metadata
     id="metadata346">
    <rdf:RDF>
      <cc:Work
         rdf:about="">
        <dc:format>image/svg+xml</dc:format>
        <dc:type
           rdf:resource="http://purl.org/dc/dcmitype/StillImage" />
      </cc:Work>
    </rdf:RDF>
  </metadata>
  <sodipodi:namedview
     pagecolor="#ffffff"
     bordercolor="#666666"
     borderopacity="1"
     objecttolerance="10"
     gridtolerance="10"
     guidetolerance="10"
     inkscape:pageopacity="0"
     inkscape:pageshadow="2"
     inkscape:window-width="1165"
     inkscape:window-height="745"
     id="namedview344"
     showgrid="false"
     inkscape:zoom="5.1497275"
     inkscape:cx="45.212941"
     inkscape:cy="32.283665"
     inkscape:window-x="654"
     inkscape:window-y="62"
     inkscape:window-maximized="0"
     inkscape:current-layer="Layer_2"
     inkscape:document-rotation="0" />
  <defs
     id="defs282">
    <style
       id="style275">
			.cls-1,.cls-4,.cls-6{fill:#389bf3;}.cls-1,.cls-2{opacity:0.8;}.cls-2,.cls-5,.cls-8{fill:#ff9d23;}.cls-3,.cls-7{fill:#aa7dff;}.cls-19,.cls-6,.cls-7,.cls-8{opacity:0.5;}.cls-9{fill:#fff;}.cls-10{fill:#cec1bc;}.cls-11{fill:url(#lukaszadam_gradient);}.cls-12,.cls-14,.cls-15,.cls-16,.cls-17,.cls-18,.cls-19,.cls-20{fill:none;stroke-miterlimit:10;}.cls-12,.cls-17,.cls-18,.cls-19,.cls-20{stroke:#732e54;}.cls-12,.cls-14,.cls-15,.cls-16{stroke-linecap:round;}.cls-12,.cls-17{stroke-width:2px;}.cls-13{fill:#732e54;}.cls-14,.cls-15,.cls-16{stroke:#fff;}.cls-14{opacity:0.3;}.cls-16{opacity:0.6;}.cls-20{opacity:0.2;}
		</style>
    <linearGradient
       id="lukaszadam_gradient"
       x1="20.63"
       y1="56.42"
       x2="33.89"
       y2="56.42"
       gradientUnits="userSpaceOnUse"
       gradientTransform="matrix(0.91691865,0,0,0.8597291,13.124913,0.51186557)">
      <stop
         offset="0.04"
         stop-color="#f27b40"
         id="stop277" />
      <stop
         offset="1"
         stop-color="#ec697d"
         id="stop279" />
    </linearGradient>
  </defs>
  <title
     id="title284">
		Asset 21
	</title>
  <g
     id="Layer_2"
     data-name="Layer 2">
    <path
       class="cls-1"
       d="M 60.787657,22.14162 42.3851,33.369682 a 2.4224403,2.2713493 0 1 1 -2.640726,-3.8086 L 58.146931,18.384604 a 2.4224403,2.2713493 0 0 1 2.640726,3.808599 z"
       id="path286"
       style="stroke-width:0.887863" />
    <path
       class="cls-2"
       d="m 36.584269,36.844019 -12.305047,7.496838 a 2.4224403,2.2713493 0 1 1 -2.640726,-3.8086 l 12.305048,-7.505436 a 2.4298343,2.2782822 0 0 1 2.640725,3.817198 z"
       id="path288"
       style="stroke-width:0.887863" />
    <path
       class="cls-3"
       d="M 53.209133,18.628419 34.815745,29.847884 A 2.4298343,2.2782822 0 0 1 32.175019,26.030687 L 50.568407,14.854208 a 2.4224403,2.2713493 0 1 1 2.640726,3.8086 z"
       id="path290"
       style="stroke-width:0.887863" />
    <path
       class="cls-4"
       d="m 27.937727,34.20465 -12.305048,7.471047 a 2.4206651,2.2696849 0 0 1 -2.640725,-3.782809 l 12.305048,-7.505436 a 2.4298343,2.2782822 0 0 1 2.640725,3.817198 z"
       id="path292"
       style="stroke-width:0.887863" />
    <path
       class="cls-5"
       d="m 58.086011,18.745014 -0.119199,0.06878 a 2.4298343,2.2782822 0 0 1 -2.640726,-3.817198 l 0.119199,-0.06878 a 2.4298343,2.2782822 0 0 1 2.640726,3.817198 z"
       id="path294"
       style="stroke-width:0.887863" />
    <path
       class="cls-6"
       d="M 60.24077,30.327272 41.838213,41.503751 a 2.4224403,2.2713493 0 1 1 -2.640726,-3.8086 L 57.600044,26.518672 a 2.4224403,2.2713493 0 0 1 2.640726,3.8086 z"
       id="path296"
       style="stroke-width:0.887863" />
    <path
       class="cls-7"
       d="M 35.649012,45.312351 23.343965,52.852175 A 2.4298343,2.2782822 0 1 1 20.703239,49.034977 L 32.98078,41.503751 a 2.4224403,2.2713493 0 0 1 2.640726,3.8086 z"
       id="path298"
       style="stroke-width:0.887863" />
    <path
       class="cls-8"
       d="m 65.788128,26.939939 -0.110031,0.06878 a 2.4224403,2.2713493 0 1 1 -2.640726,-3.8086 l 0.110031,-0.06878 a 2.4224403,2.2713493 0 1 1 2.640726,3.8086 z"
       id="path300"
       style="stroke-width:0.887863" />
    <rect
       class="cls-9"
       x="14.431517"
       y="3.6567681"
       width="44.984028"
       height="20.238026"
       rx="4.135303"
       id="rect302"
       style="stroke-width:0.887863" />
    <path
       class="cls-10"
       d="m 59.177145,16.165827 v 3.490499 A 4.6946233,4.4018131 0 0 1 54.482521,24.05814 H 18.88774 a 4.6946233,4.4018131 0 0 1 -4.694623,-4.401814 v -3.490499 a 4.6946233,4.4018131 0 0 0 4.694623,4.401812 h 35.594781 a 4.6946233,4.4018131 0 0 0 4.694624,-4.401812 z"
       id="path304"
       style="stroke-width:0.887863" />
    <rect
       class="cls-11"
       x="32.040943"
       y="36.328182"
       width="12.158341"
       height="25.362009"
       rx="1.5862693"
       id="rect306"
       style="fill:url(#lukaszadam_gradient);stroke-width:0.887863" />
    <line
       class="cls-12"
       x1="24.875217"
       y1="24.780312"
       x2="24.985249"
       y2="32.139595"
       id="line308" />
    <line
       class="cls-12"
       x1="28.332001"
       y1="24.780312"
       x2="28.44203"
       y2="29.354073"
       id="line310" />
    <ellipse
       class="cls-13"
       cx="25.012756"
       cy="34.993896"
       id="circle312"
       rx="0.82522672"
       ry="0.77375621"
       style="stroke-width:0.887863" />
    <line
       class="cls-12"
       x1="47.614799"
       y1="24.780312"
       x2="47.724834"
       y2="28.073076"
       id="line314" />
    <line
       class="cls-12"
       x1="51.080753"
       y1="24.780312"
       x2="51.190784"
       y2="33.257244"
       id="line316" />
    <ellipse
       class="cls-13"
       cx="47.669819"
       cy="31.064934"
       id="circle318"
       rx="0.82522672"
       ry="0.77375621"
       style="stroke-width:0.887863" />
    <line
       class="cls-14"
       x1="39.183743"
       y1="58.560772"
       x2="40.192352"
       y2="58.560772"
       id="line320"
       style="stroke-width:0.887863" />
    <polyline
       class="cls-15"
       points="23.54 60.67 23.54 67.52 26.03 67.52"
       id="polyline322"
       transform="matrix(0.91691861,0,0,0.85972913,13.124912,0.51186567)" />
    <line
       class="cls-16"
       x1="34.709183"
       y1="48.364391"
       x2="34.709183"
       y2="49.507832"
       id="line324"
       style="stroke-width:0.887863" />
    <line
       class="cls-15"
       x1="34.709183"
       y1="42.182938"
       x2="34.709183"
       y2="45.312351"
       id="line326"
       style="stroke-width:0.887863" />
    <rect
       class="cls-17"
       x="14.367331"
       y="4.1812024"
       width="44.984028"
       height="20.238026"
       rx="4.135303"
       id="rect328" />
    <rect
       class="cls-17"
       x="32.013439"
       y="36.139038"
       width="12.158341"
       height="25.362009"
       rx="1.5862693"
       id="rect332" />
    <line
       class="cls-18"
       x1="18.906078"
       y1="7.697494"
       x2="31.064419"
       y2="7.697494"
       id="line334"
       style="stroke-width:0.887863" />
    <line
       class="cls-19"
       x1="32.806564"
       y1="7.697494"
       x2="36.767654"
       y2="7.697494"
       id="line336"
       style="stroke-width:0.887863" />
    <line
       class="cls-20"
       x1="38.473122"
       y1="7.697494"
       x2="41.508125"
       y2="7.697494"
       id="line338"
       style="stroke-width:0.887863" />
  </g>
</svg>
