<?xml version="1.0" encoding="UTF-8" standalone="no"?>
<svg
   xmlns:dc="http://purl.org/dc/elements/1.1/"
   xmlns:cc="http://creativecommons.org/ns#"
   xmlns:rdf="http://www.w3.org/1999/02/22-rdf-syntax-ns#"
   xmlns:svg="http://www.w3.org/2000/svg"
   xmlns="http://www.w3.org/2000/svg"
   xmlns:sodipodi="http://sodipodi.sourceforge.net/DTD/sodipodi-0.dtd"
   xmlns:inkscape="http://www.inkscape.org/namespaces/inkscape"
   viewBox="0 0 73.95 67.39"
   version="1.1"
   id="svg196"
   sodipodi:docname="slide3.svg"
   inkscape:version="1.0.1 (3bc2e813f5, 2020-09-07)">
  <metadata
     id="metadata200">
    <rdf:RDF>
      <cc:Work
         rdf:about="">
        <dc:format>image/svg+xml</dc:format>
        <dc:type
           rdf:resource="http://purl.org/dc/dcmitype/StillImage" />
      </cc:Work>
    </rdf:RDF>
  </metadata>
  <sodipodi:namedview
     pagecolor="#ffffff"
     bordercolor="#666666"
     borderopacity="1"
     objecttolerance="10"
     gridtolerance="10"
     guidetolerance="10"
     inkscape:pageopacity="0"
     inkscape:pageshadow="2"
     inkscape:window-width="1185"
     inkscape:window-height="1008"
     id="namedview198"
     showgrid="false"
     inkscape:zoom="4.2953964"
     inkscape:cx="69.19167"
     inkscape:cy="28.752651"
     inkscape:window-x="685"
     inkscape:window-y="0"
     inkscape:window-maximized="0"
     inkscape:current-layer="svg196" />
  <defs
     id="defs160">
    <style
       id="style158">
			.cls-1,.cls-13,.cls-14{fill:none;stroke:#732e54;stroke-miterlimit:10;}.cls-1,.cls-14{stroke-linecap:round;}.cls-1{stroke-width:6px;}.cls-2{fill:#732e54;}.cls-3,.cls-6,.cls-8{fill:#389bf3;}.cls-3,.cls-4{opacity:0.8;}.cls-10,.cls-4,.cls-7{fill:#ff9d23;}.cls-5,.cls-9{fill:#aa7dff;}.cls-10,.cls-8,.cls-9{opacity:0.5;}.cls-11{fill:#fff;}.cls-12{fill:#cec1bc;}.cls-13,.cls-14{stroke-width:2px;}
		</style>
  </defs>
  <title
     id="title162">
		Asset 20
	</title>
  <g
     id="Layer_2"
     data-name="Layer 2"
     transform="matrix(0.89559261,0,0,0.88104081,2.3256797,9.3126599)">
    <g
       id="Layer_1-2"
       data-name="Layer 1">
      <line
         class="cls-1"
         x1="61.330002"
         y1="25.620001"
         x2="71.470001"
         y2="15.48"
         id="line164" />
      <polygon
         class="cls-2"
         points="74.12,23.47 68.8,18.15 63.47,12.82 70.75,10.88 78.02,8.93 76.07,16.2 "
         id="polygon166" />
      <path
         class="cls-3"
         d="M 53.75,11.86 33.68,24.91 A 2.6419358,2.6419358 0 1 1 30.8,20.48 l 20.07,-13 a 2.6419358,2.6419358 0 0 1 2.88,4.43 z"
         id="path168" />
      <path
         class="cls-4"
         d="M 26.93,29.3 13.51,38 a 2.6419358,2.6419358 0 1 1 -2.88,-4.43 l 13.42,-8.72 a 2.6419358,2.6419358 0 0 1 2.88,4.43 z"
         id="path170" />
      <path
         class="cls-5"
         d="M 44.32,8.79 24.26,21.84 a 2.6419358,2.6419358 0 1 1 -2.88,-4.43 l 20.06,-13 a 2.6419358,2.6419358 0 1 1 2.88,4.43 z"
         id="path172" />
      <path
         class="cls-6"
         d="M 17.5,26.23 4.08,35 A 2.6629307,2.6629307 0 0 1 1.2,30.52 L 14.62,21.8 a 2.6419358,2.6419358 0 1 1 2.88,4.43 z"
         id="path174" />
      <path
         class="cls-7"
         d="M 50.38,4.86 50.25,4.94 A 2.6419358,2.6419358 0 0 1 47.37,0.51 L 47.5,0.43 a 2.6419358,2.6419358 0 0 1 2.88,4.43 z"
         id="path176" />
      <path
         class="cls-8"
         d="M 52.73,21.72 32.66,34.77 a 2.65,2.65 0 0 1 -2.88,-4.44 l 20.07,-13 a 2.6419358,2.6419358 0 0 1 2.88,4.43 z"
         id="path178" />
      <path
         class="cls-9"
         d="M 25.91,39.16 12.49,47.88 A 2.6419358,2.6419358 0 1 1 9.61,43.45 L 23,34.72 a 2.65,2.65 0 0 1 2.88,4.44 z"
         id="path180" />
      <path
         class="cls-10"
         d="m 58.78,17.79 -0.12,0.08 a 2.65,2.65 0 0 1 -2.88,-4.44 l 0.12,-0.08 a 2.65,2.65 0 1 1 2.88,4.44 z"
         id="path182" />
      <path
         class="cls-11"
         d="M 73.64,36.73 A 17.06,17.06 0 0 0 56.58,19.67 17.37,17.37 0 0 0 51.3,20.5 a 14,14 0 0 0 -26.74,5.66 13.27,13.27 0 0 0 0.16,2 A 12.85,12.85 0 0 0 26,53.8 H 56.83 A 17.05,17.05 0 0 0 73.64,36.73 Z"
         id="path184" />
      <path
         class="cls-12"
         d="M 73.49,37.46 A 17.06,17.06 0 0 1 56.69,54.52 H 25.85 a 12.82,12.82 0 0 1 -10.64,-5.65 12.78,12.78 0 0 0 7.21,2.22 h 30.83 a 17.06,17.06 0 0 0 13.42,-27.27 17,17 0 0 1 6.82,13.64 z"
         id="path186" />
      <path
         class="cls-13"
         d="M 73.64,36.73 A 17.06,17.06 0 0 0 56.58,19.67 17.37,17.37 0 0 0 51.3,20.5 a 14,14 0 0 0 -26.74,5.66 13.27,13.27 0 0 0 0.16,2 A 12.85,12.85 0 0 0 26,53.8 H 56.83 A 17.05,17.05 0 0 0 73.64,36.73 Z"
         id="path188" />
      <path
         class="cls-14"
         d="m 25.41,28.12 a 12.28,12.28 0 0 1 10.18,5.41"
         id="path190" />
      <path
         class="cls-14"
         d="m 55.84,19.7 a 12.24,12.24 0 0 0 -9.86,5"
         id="path192" />
    </g>
  </g>
</svg>
