<svg aria-hidden="true" focusable="false" data-prefix="fas" data-icon="stream" class="svg-inline--fa fa-stream fa-w-16" role="img" xmlns="http://www.w3.org/2000/svg" viewBox="0 0 512 512"><path fill="currentColor" d="M 16 128 432 128 C 440.84 128 448 120.84 448 112 L 448 48 C 448 39.16 440.84 32 432 32 L 16 32 C 7.16 32 0 39.16 0 48 L 0 112 C 0 120.84 7.16 128 16 128 Z M 496 208 L 80 208 C 71.16 208 64 215.16 64 224 L 64 288 C 64 296.84 71.16 304 80 304 L 496 304 C 504.84 304 512 296.84 512 288 L 512 224 C 512 215.16 504.84 208 496 208 Z M 432 384 L 16 384 C 7.16 384 0 391.16 0 400 L 0 464 C 0 472.84 7.16 480 16 480 L 432 480 C 440.84 480 448 472.84 448 464 L 448 400 C 448 391.16 440.84 384 432 384 Z"></path></svg>